<svg xmlns="http://www.w3.org/2000/svg" xmlns:xlink="http://www.w3.org/1999/xlink" width="500" zoomAndPan="magnify" viewBox="0 0 375 374.999991" height="500" preserveAspectRatio="xMidYMid meet" version="1.0"><defs><filter x="0%" y="0%" width="100%" height="100%" id="83b79938a7"><feColorMatrix values="0 0 0 0 1 0 0 0 0 1 0 0 0 0 1 0 0 0 1 0" color-interpolation-filters="sRGB"/></filter><mask id="bde3529f9a"><g filter="url(#83b79938a7)"><rect x="-37.5" width="450" fill="#000000" y="-37.499999" height="449.999989" fill-opacity="0.36"/></g></mask><clipPath id="221c3a6b42"><path d="M 3.480469 374 L 369.59375 374 L 369.59375 375 L 3.480469 375 Z M 3.480469 374 " clip-rule="nonzero"/></clipPath><clipPath id="27e015b18d"><path d="M 3.480469 273 L 369.59375 273 L 369.59375 275 L 3.480469 275 Z M 3.480469 273 " clip-rule="nonzero"/></clipPath><clipPath id="a759ca925c"><path d="M 3.480469 172 L 369.59375 172 L 369.59375 174 L 3.480469 174 Z M 3.480469 172 " clip-rule="nonzero"/></clipPath><clipPath id="7f1f6ad376"><path d="M 3.480469 71 L 369.59375 71 L 369.59375 73 L 3.480469 73 Z M 3.480469 71 " clip-rule="nonzero"/></clipPath><clipPath id="e0d04b7847"><path d="M 3.480469 314.605469 L 58.835938 314.605469 L 58.835938 375 L 3.480469 375 Z M 3.480469 314.605469 " clip-rule="nonzero"/></clipPath><clipPath id="9fba5a00f4"><path d="M 61.75 253.910156 L 117.101562 253.910156 L 117.101562 375 L 61.75 375 Z M 61.75 253.910156 " clip-rule="nonzero"/></clipPath><clipPath id="f74780cdcb"><path d="M 129.726562 213.445312 L 185.082031 213.445312 L 185.082031 375 L 129.726562 375 Z M 129.726562 213.445312 " clip-rule="nonzero"/></clipPath><clipPath id="1045579018"><path d="M 187.996094 92.058594 L 243.347656 92.058594 L 243.347656 375 L 187.996094 375 Z M 187.996094 92.058594 " clip-rule="nonzero"/></clipPath><clipPath id="5ee1558f97"><path d="M 255.972656 51.597656 L 311.328125 51.597656 L 311.328125 375 L 255.972656 375 Z M 255.972656 51.597656 " clip-rule="nonzero"/></clipPath><clipPath id="79e3ae6974"><path d="M 314.242188 11.132812 L 369.59375 11.132812 L 369.59375 375 L 314.242188 375 Z M 314.242188 11.132812 " clip-rule="nonzero"/></clipPath><clipPath id="d4ae8796a1"><rect x="0" width="371" y="0" height="375"/></clipPath><clipPath id="51c687bb75"><path d="M 1 16 L 369.75 16 L 369.75 354.75 L 1 354.75 Z M 1 16 " clip-rule="nonzero"/></clipPath></defs><g mask="url(#bde3529f9a)"><g transform="matrix(1, 0, 0, 1, 0, 0)"><g clip-path="url(#d4ae8796a1)"><g clip-path="url(#221c3a6b42)"><path stroke-linecap="butt" transform="matrix(0.84657, 0, 0, 0.84657, 3.482039, -29.328539)" fill="none" stroke-linejoin="miter" d="M -0.00185434 477.958377 L 432.464579 477.958377 " stroke="#000000" stroke-width="1" stroke-opacity="0.6" stroke-miterlimit="4"/></g><g clip-path="url(#27e015b18d)"><path stroke-linecap="butt" transform="matrix(0.84657, 0, 0, 0.84657, 3.482039, -29.328539)" fill="none" stroke-linejoin="miter" d="M -0.00185434 358.468905 L 432.464579 358.468905 " stroke="#000000" stroke-width="1" stroke-opacity="0.251" stroke-miterlimit="4"/></g><g clip-path="url(#a759ca925c)"><path stroke-linecap="butt" transform="matrix(0.84657, 0, 0, 0.84657, 3.482039, -29.328539)" fill="none" stroke-linejoin="miter" d="M -0.00185434 238.979433 L 432.464579 238.979433 " stroke="#000000" stroke-width="1" stroke-opacity="0.251" stroke-miterlimit="4"/></g><g clip-path="url(#7f1f6ad376)"><path stroke-linecap="butt" transform="matrix(0.84657, 0, 0, 0.84657, 3.482039, -29.328539)" fill="none" stroke-linejoin="miter" d="M -0.00185434 119.489961 L 432.464579 119.489961 " stroke="#000000" stroke-width="1" stroke-opacity="0.251" stroke-miterlimit="4"/></g><g clip-path="url(#e0d04b7847)"><path fill="#116b5e" d="M 7.910156 314.605469 L 54.40625 314.605469 C 54.699219 314.605469 54.988281 314.632812 55.273438 314.6875 C 55.558594 314.746094 55.832031 314.828125 56.101562 314.941406 C 56.371094 315.050781 56.625 315.1875 56.867188 315.351562 C 57.109375 315.511719 57.332031 315.695312 57.539062 315.902344 C 57.746094 316.105469 57.929688 316.328125 58.089844 316.570312 C 58.25 316.8125 58.386719 317.070312 58.5 317.335938 C 58.609375 317.605469 58.695312 317.882812 58.75 318.167969 C 58.808594 318.453125 58.835938 318.742188 58.835938 319.03125 L 58.835938 375.296875 C 58.835938 375.589844 58.808594 375.875 58.75 376.160156 C 58.695312 376.445312 58.609375 376.722656 58.5 376.992188 C 58.386719 377.261719 58.25 377.515625 58.089844 377.757812 C 57.929688 378 57.746094 378.222656 57.539062 378.429688 C 57.332031 378.632812 57.109375 378.816406 56.867188 378.980469 C 56.625 379.140625 56.371094 379.277344 56.101562 379.386719 C 55.832031 379.5 55.558594 379.582031 55.273438 379.640625 C 54.988281 379.699219 54.699219 379.726562 54.40625 379.726562 L 7.910156 379.726562 C 7.621094 379.726562 7.332031 379.699219 7.046875 379.640625 C 6.761719 379.582031 6.484375 379.5 6.214844 379.386719 C 5.945312 379.277344 5.691406 379.140625 5.449219 378.980469 C 5.207031 378.816406 4.984375 378.632812 4.777344 378.429688 C 4.574219 378.222656 4.390625 378 4.226562 377.757812 C 4.066406 377.515625 3.929688 377.261719 3.820312 376.992188 C 3.707031 376.722656 3.625 376.445312 3.566406 376.160156 C 3.511719 375.875 3.480469 375.589844 3.480469 375.296875 L 3.480469 319.03125 C 3.480469 318.742188 3.511719 318.453125 3.566406 318.167969 C 3.625 317.882812 3.707031 317.605469 3.820312 317.335938 C 3.929688 317.070312 4.066406 316.8125 4.226562 316.570312 C 4.390625 316.328125 4.574219 316.105469 4.777344 315.902344 C 4.984375 315.695312 5.207031 315.511719 5.449219 315.351562 C 5.691406 315.1875 5.945312 315.050781 6.214844 314.941406 C 6.484375 314.828125 6.761719 314.746094 7.046875 314.6875 C 7.332031 314.632812 7.621094 314.605469 7.910156 314.605469 Z M 7.910156 314.605469 " fill-opacity="1" fill-rule="nonzero"/></g><g clip-path="url(#9fba5a00f4)"><path fill="#11386b" d="M 66.175781 253.910156 L 112.675781 253.910156 C 112.964844 253.910156 113.253906 253.9375 113.539062 253.996094 C 113.824219 254.050781 114.101562 254.136719 114.371094 254.246094 C 114.636719 254.359375 114.894531 254.496094 115.136719 254.65625 C 115.375 254.816406 115.601562 255 115.804688 255.207031 C 116.011719 255.414062 116.195312 255.636719 116.355469 255.878906 C 116.519531 256.121094 116.65625 256.375 116.765625 256.644531 C 116.878906 256.910156 116.960938 257.1875 117.019531 257.472656 C 117.074219 257.757812 117.101562 258.046875 117.101562 258.339844 L 117.101562 375.296875 C 117.101562 375.589844 117.074219 375.875 117.019531 376.160156 C 116.960938 376.445312 116.878906 376.722656 116.765625 376.992188 C 116.65625 377.261719 116.519531 377.515625 116.355469 377.757812 C 116.195312 378 116.011719 378.222656 115.804688 378.429688 C 115.601562 378.632812 115.375 378.816406 115.136719 378.980469 C 114.894531 379.140625 114.636719 379.277344 114.371094 379.390625 C 114.101562 379.5 113.824219 379.582031 113.539062 379.640625 C 113.253906 379.699219 112.964844 379.726562 112.675781 379.726562 L 66.175781 379.726562 C 65.886719 379.726562 65.597656 379.699219 65.3125 379.640625 C 65.027344 379.582031 64.75 379.5 64.484375 379.386719 C 64.214844 379.277344 63.960938 379.140625 63.71875 378.980469 C 63.476562 378.816406 63.25 378.632812 63.046875 378.429688 C 62.839844 378.222656 62.65625 378 62.496094 377.757812 C 62.335938 377.515625 62.199219 377.261719 62.085938 376.992188 C 61.976562 376.722656 61.890625 376.445312 61.835938 376.160156 C 61.777344 375.875 61.75 375.589844 61.75 375.296875 L 61.75 258.339844 C 61.75 258.046875 61.777344 257.757812 61.835938 257.472656 C 61.890625 257.1875 61.976562 256.910156 62.085938 256.644531 C 62.199219 256.375 62.335938 256.121094 62.496094 255.878906 C 62.65625 255.636719 62.839844 255.414062 63.046875 255.207031 C 63.25 255 63.476562 254.816406 63.71875 254.65625 C 63.960938 254.496094 64.214844 254.359375 64.484375 254.246094 C 64.75 254.136719 65.027344 254.050781 65.3125 253.996094 C 65.597656 253.9375 65.886719 253.910156 66.175781 253.910156 Z M 66.175781 253.910156 " fill-opacity="1" fill-rule="nonzero"/></g><g clip-path="url(#f74780cdcb)"><path fill="#116b5e" d="M 134.15625 213.445312 L 180.652344 213.445312 C 180.945312 213.445312 181.230469 213.476562 181.515625 213.53125 C 181.800781 213.589844 182.078125 213.671875 182.347656 213.785156 C 182.617188 213.894531 182.871094 214.03125 183.113281 214.195312 C 183.355469 214.355469 183.578125 214.539062 183.785156 214.742188 C 183.988281 214.949219 184.171875 215.171875 184.335938 215.414062 C 184.496094 215.65625 184.632812 215.914062 184.746094 216.179688 C 184.855469 216.449219 184.941406 216.726562 184.996094 217.011719 C 185.054688 217.296875 185.082031 217.585938 185.082031 217.875 L 185.082031 375.296875 C 185.082031 375.589844 185.054688 375.875 184.996094 376.160156 C 184.941406 376.445312 184.855469 376.722656 184.746094 376.992188 C 184.632812 377.261719 184.496094 377.515625 184.335938 377.757812 C 184.171875 378 183.988281 378.222656 183.785156 378.429688 C 183.578125 378.632812 183.355469 378.816406 183.113281 378.980469 C 182.871094 379.140625 182.617188 379.277344 182.347656 379.386719 C 182.078125 379.5 181.800781 379.582031 181.515625 379.640625 C 181.230469 379.699219 180.945312 379.726562 180.652344 379.726562 L 134.15625 379.726562 C 133.867188 379.726562 133.578125 379.699219 133.292969 379.640625 C 133.007812 379.582031 132.730469 379.5 132.460938 379.386719 C 132.191406 379.277344 131.9375 379.140625 131.695312 378.980469 C 131.453125 378.816406 131.230469 378.632812 131.023438 378.429688 C 130.820312 378.222656 130.636719 378 130.472656 377.757812 C 130.3125 377.515625 130.175781 377.261719 130.066406 376.992188 C 129.953125 376.722656 129.871094 376.445312 129.8125 376.160156 C 129.757812 375.875 129.726562 375.589844 129.726562 375.296875 L 129.726562 217.875 C 129.726562 217.585938 129.757812 217.296875 129.8125 217.011719 C 129.871094 216.726562 129.953125 216.449219 130.066406 216.179688 C 130.175781 215.914062 130.3125 215.65625 130.472656 215.414062 C 130.636719 215.171875 130.820312 214.949219 131.023438 214.742188 C 131.230469 214.539062 131.453125 214.355469 131.695312 214.195312 C 131.9375 214.03125 132.191406 213.894531 132.460938 213.785156 C 132.730469 213.671875 133.007812 213.589844 133.292969 213.53125 C 133.578125 213.476562 133.867188 213.445312 134.15625 213.445312 Z M 134.15625 213.445312 " fill-opacity="1" fill-rule="nonzero"/></g><g clip-path="url(#1045579018)"><path fill="#11386b" d="M 192.421875 92.058594 L 238.921875 92.058594 C 239.210938 92.058594 239.5 92.085938 239.785156 92.144531 C 240.070312 92.199219 240.347656 92.285156 240.613281 92.394531 C 240.882812 92.507812 241.140625 92.644531 241.378906 92.804688 C 241.621094 92.96875 241.847656 93.152344 242.050781 93.355469 C 242.257812 93.5625 242.441406 93.785156 242.601562 94.027344 C 242.765625 94.269531 242.902344 94.523438 243.011719 94.792969 C 243.121094 95.0625 243.207031 95.339844 243.265625 95.625 C 243.320312 95.910156 243.347656 96.195312 243.347656 96.488281 L 243.347656 375.296875 C 243.347656 375.589844 243.320312 375.875 243.265625 376.160156 C 243.207031 376.445312 243.121094 376.722656 243.011719 376.992188 C 242.902344 377.261719 242.765625 377.515625 242.601562 377.757812 C 242.441406 378 242.257812 378.222656 242.050781 378.429688 C 241.847656 378.632812 241.621094 378.816406 241.378906 378.980469 C 241.140625 379.140625 240.882812 379.277344 240.613281 379.386719 C 240.347656 379.5 240.070312 379.582031 239.785156 379.640625 C 239.5 379.699219 239.210938 379.726562 238.921875 379.726562 L 192.421875 379.726562 C 192.132812 379.726562 191.84375 379.699219 191.558594 379.640625 C 191.273438 379.582031 190.996094 379.5 190.730469 379.386719 C 190.460938 379.277344 190.203125 379.140625 189.964844 378.980469 C 189.722656 378.816406 189.496094 378.632812 189.292969 378.429688 C 189.085938 378.222656 188.902344 378 188.742188 377.757812 C 188.578125 377.515625 188.441406 377.261719 188.332031 376.992188 C 188.222656 376.722656 188.136719 376.445312 188.078125 376.160156 C 188.023438 375.875 187.996094 375.589844 187.996094 375.296875 L 187.996094 96.488281 C 187.996094 96.195312 188.023438 95.910156 188.078125 95.625 C 188.136719 95.339844 188.222656 95.0625 188.332031 94.792969 C 188.441406 94.523438 188.578125 94.269531 188.742188 94.027344 C 188.902344 93.785156 189.085938 93.5625 189.292969 93.355469 C 189.496094 93.152344 189.722656 92.96875 189.964844 92.804688 C 190.203125 92.644531 190.460938 92.507812 190.730469 92.394531 C 190.996094 92.285156 191.273438 92.199219 191.558594 92.144531 C 191.84375 92.085938 192.132812 92.058594 192.421875 92.058594 Z M 192.421875 92.058594 " fill-opacity="1" fill-rule="nonzero"/></g><g clip-path="url(#5ee1558f97)"><path fill="#116b5e" d="M 260.402344 51.597656 L 306.898438 51.597656 C 307.191406 51.597656 307.476562 51.625 307.761719 51.683594 C 308.046875 51.738281 308.324219 51.824219 308.59375 51.933594 C 308.863281 52.046875 309.117188 52.179688 309.359375 52.34375 C 309.601562 52.503906 309.824219 52.6875 310.03125 52.894531 C 310.234375 53.097656 310.417969 53.324219 310.582031 53.566406 C 310.742188 53.804688 310.878906 54.0625 310.992188 54.332031 C 311.101562 54.597656 311.183594 54.875 311.242188 55.160156 C 311.300781 55.445312 311.328125 55.734375 311.328125 56.023438 L 311.328125 375.296875 C 311.328125 375.589844 311.300781 375.875 311.242188 376.160156 C 311.183594 376.445312 311.101562 376.722656 310.992188 376.992188 C 310.878906 377.261719 310.742188 377.515625 310.582031 377.757812 C 310.417969 378 310.234375 378.222656 310.03125 378.429688 C 309.824219 378.632812 309.601562 378.816406 309.359375 378.980469 C 309.117188 379.140625 308.863281 379.277344 308.59375 379.390625 C 308.324219 379.5 308.046875 379.582031 307.761719 379.640625 C 307.476562 379.699219 307.191406 379.726562 306.898438 379.726562 L 260.402344 379.726562 C 260.109375 379.726562 259.824219 379.699219 259.539062 379.640625 C 259.253906 379.582031 258.976562 379.5 258.707031 379.386719 C 258.4375 379.277344 258.183594 379.140625 257.941406 378.980469 C 257.699219 378.816406 257.476562 378.632812 257.269531 378.429688 C 257.066406 378.222656 256.882812 378 256.71875 377.757812 C 256.558594 377.515625 256.421875 377.261719 256.308594 376.992188 C 256.199219 376.722656 256.113281 376.445312 256.058594 376.160156 C 256 375.875 255.972656 375.589844 255.972656 375.296875 L 255.972656 56.023438 C 255.972656 55.734375 256 55.445312 256.058594 55.160156 C 256.113281 54.875 256.199219 54.597656 256.308594 54.332031 C 256.421875 54.0625 256.558594 53.804688 256.71875 53.566406 C 256.882812 53.324219 257.066406 53.097656 257.269531 52.894531 C 257.476562 52.6875 257.699219 52.503906 257.941406 52.34375 C 258.183594 52.179688 258.4375 52.046875 258.707031 51.933594 C 258.976562 51.824219 259.253906 51.738281 259.539062 51.683594 C 259.824219 51.625 260.109375 51.597656 260.402344 51.597656 Z M 260.402344 51.597656 " fill-opacity="1" fill-rule="nonzero"/></g><g clip-path="url(#79e3ae6974)"><path fill="#11386b" d="M 318.667969 11.132812 L 365.167969 11.132812 C 365.457031 11.132812 365.746094 11.164062 366.03125 11.21875 C 366.316406 11.277344 366.59375 11.359375 366.859375 11.472656 C 367.128906 11.582031 367.382812 11.71875 367.625 11.878906 C 367.867188 12.042969 368.09375 12.226562 368.296875 12.429688 C 368.503906 12.636719 368.6875 12.859375 368.847656 13.101562 C 369.011719 13.34375 369.144531 13.597656 369.257812 13.867188 C 369.367188 14.136719 369.453125 14.414062 369.507812 14.699219 C 369.566406 14.984375 369.59375 15.273438 369.59375 15.5625 L 369.59375 375.296875 C 369.59375 375.589844 369.566406 375.875 369.507812 376.160156 C 369.453125 376.445312 369.367188 376.722656 369.257812 376.992188 C 369.144531 377.261719 369.007812 377.515625 368.847656 377.757812 C 368.6875 378 368.503906 378.222656 368.296875 378.429688 C 368.09375 378.632812 367.867188 378.816406 367.625 378.980469 C 367.382812 379.140625 367.128906 379.277344 366.859375 379.386719 C 366.59375 379.5 366.316406 379.582031 366.03125 379.640625 C 365.746094 379.699219 365.457031 379.726562 365.167969 379.726562 L 318.667969 379.726562 C 318.378906 379.726562 318.089844 379.699219 317.804688 379.640625 C 317.519531 379.582031 317.242188 379.5 316.972656 379.386719 C 316.707031 379.277344 316.449219 379.140625 316.207031 378.980469 C 315.96875 378.816406 315.742188 378.632812 315.539062 378.429688 C 315.332031 378.222656 315.148438 378 314.988281 377.757812 C 314.824219 377.515625 314.6875 377.261719 314.578125 376.992188 C 314.464844 376.722656 314.382812 376.445312 314.324219 376.160156 C 314.269531 375.875 314.242188 375.589844 314.242188 375.296875 L 314.242188 15.5625 C 314.242188 15.273438 314.269531 14.984375 314.324219 14.699219 C 314.382812 14.414062 314.464844 14.136719 314.578125 13.867188 C 314.6875 13.597656 314.824219 13.34375 314.988281 13.101562 C 315.148438 12.859375 315.332031 12.636719 315.539062 12.429688 C 315.742188 12.226562 315.96875 12.042969 316.207031 11.878906 C 316.449219 11.71875 316.707031 11.582031 316.972656 11.472656 C 317.242188 11.359375 317.519531 11.277344 317.804688 11.21875 C 318.089844 11.164062 318.378906 11.132812 318.667969 11.132812 Z M 318.667969 11.132812 " fill-opacity="1" fill-rule="nonzero"/></g></g></g></g><g clip-path="url(#51c687bb75)"><path fill="#000000" d="M 131.320312 135.332031 C 117.347656 135.332031 105.976562 146.6875 105.976562 160.640625 C 105.976562 167.386719 108.636719 173.519531 112.957031 178.058594 C 99.078125 184.347656 88.96875 197.574219 87.25 213.617188 C 87.070312 215.289062 87.613281 216.957031 88.738281 218.207031 C 89.863281 219.457031 91.464844 220.171875 93.148438 220.171875 L 169.492188 220.171875 C 171.171875 220.171875 172.777344 219.457031 173.902344 218.207031 C 175.027344 216.957031 175.566406 215.289062 175.386719 213.617188 C 175.042969 210.417969 174.355469 207.335938 173.382812 204.390625 L 197.699219 204.390625 C 196.726562 207.335938 196.039062 210.417969 195.695312 213.617188 C 195.515625 215.289062 196.054688 216.957031 197.179688 218.207031 C 198.304688 219.457031 199.910156 220.171875 201.589844 220.171875 L 277.933594 220.171875 C 279.617188 220.171875 281.21875 219.457031 282.34375 218.207031 C 283.46875 216.957031 284.007812 215.289062 283.828125 213.617188 C 282.113281 197.574219 272.003906 184.347656 258.121094 178.058594 C 262.445312 173.519531 265.105469 167.386719 265.105469 160.640625 C 265.105469 146.6875 253.734375 135.332031 239.761719 135.332031 C 225.789062 135.332031 214.417969 146.6875 214.417969 160.640625 C 214.417969 164.347656 215.226562 167.867188 216.667969 171.042969 C 212.957031 167.375 208.640625 164.410156 203.910156 162.269531 C 208.222656 157.726562 210.878906 151.601562 210.878906 144.859375 C 210.878906 130.902344 199.511719 119.550781 185.539062 119.550781 C 171.566406 119.550781 160.195312 130.902344 160.195312 144.859375 C 160.195312 151.601562 162.851562 157.726562 167.167969 162.269531 C 162.4375 164.410156 158.121094 167.375 154.414062 171.042969 C 155.851562 167.867188 156.660156 164.347656 156.660156 160.644531 C 156.660156 146.6875 145.292969 135.332031 131.320312 135.332031 Z M 117.839844 160.640625 C 117.839844 153.21875 123.886719 147.175781 131.320312 147.175781 C 138.753906 147.175781 144.800781 153.21875 144.800781 160.640625 C 144.800781 168.066406 138.753906 174.105469 131.320312 174.105469 C 123.886719 174.105469 117.839844 168.066406 117.839844 160.640625 Z M 100.4375 208.324219 C 104.679688 195.203125 116.972656 185.953125 131.320312 185.953125 C 145.664062 185.953125 157.957031 195.203125 162.203125 208.324219 Z M 270.644531 208.324219 L 208.878906 208.324219 C 213.125 195.203125 225.417969 185.953125 239.761719 185.953125 C 254.109375 185.953125 266.402344 195.203125 270.644531 208.324219 Z M 239.761719 147.175781 C 247.195312 147.175781 253.246094 153.21875 253.246094 160.640625 C 253.246094 168.066406 247.199219 174.105469 239.761719 174.105469 C 232.328125 174.105469 226.28125 168.066406 226.28125 160.640625 C 226.28125 153.21875 232.328125 147.175781 239.761719 147.175781 Z M 172.058594 144.859375 C 172.058594 137.433594 178.105469 131.394531 185.542969 131.394531 C 192.976562 131.394531 199.023438 137.433594 199.023438 144.859375 C 199.023438 152.285156 192.976562 158.324219 185.542969 158.324219 C 178.105469 158.324219 172.058594 152.285156 172.058594 144.859375 Z M 185.539062 170.171875 C 196.234375 170.171875 205.976562 175.300781 212.007812 183.824219 C 208.871094 186.335938 206.082031 189.265625 203.726562 192.542969 L 167.355469 192.542969 C 165 189.265625 162.210938 186.335938 159.074219 183.820312 C 165.105469 175.300781 174.847656 170.171875 185.539062 170.171875 Z M 367.835938 82.0625 L 334.304688 22.890625 C 331.070312 17.179688 323.785156 15.164062 318.066406 18.394531 L 306.660156 24.84375 C 300.945312 28.074219 298.925781 35.351562 302.164062 41.058594 L 304.484375 45.160156 L 300.417969 47.503906 L 249.285156 33.820312 C 239.976562 31.328125 230.792969 32.628906 222.734375 37.582031 L 148.964844 82.949219 C 141.082031 87.796875 138.628906 99.496094 143.714844 107.980469 C 146.121094 111.992188 155.898438 123.945312 180.792969 109.46875 L 221.441406 85.820312 C 221.75 85.640625 222.0625 85.46875 222.371094 85.308594 C 220.152344 94.164062 225.417969 103.328125 234.464844 106.257812 C 234.71875 106.339844 234.976562 106.402344 235.242188 106.453125 C 244.246094 108.074219 253.210938 110.957031 261.089844 113.726562 C 295.234375 138.394531 305.070312 184.324219 283.914062 220.921875 C 276.507812 233.738281 265.75 244.253906 252.949219 251.414062 C 254.035156 248.648438 252.894531 245.449219 250.207031 244.027344 C 247.3125 242.492188 243.722656 243.59375 242.1875 246.480469 L 234.589844 260.792969 C 233.734375 262.398438 233.667969 264.3125 234.410156 265.976562 C 235.152344 267.636719 236.617188 268.867188 238.386719 269.3125 L 254.117188 273.25 C 254.601562 273.371094 255.085938 273.429688 255.5625 273.429688 C 258.21875 273.429688 260.636719 271.636719 261.3125 268.945312 C 262.015625 266.136719 260.585938 263.296875 258.042969 262.128906 C 273 253.929688 285.574219 241.746094 294.1875 226.84375 C 305.910156 206.5625 309.601562 182.785156 304.578125 159.894531 C 301.359375 145.242188 294.753906 131.761719 285.40625 120.417969 C 292.980469 120.238281 299.828125 117 305.785156 113.554688 L 333.996094 97.242188 L 335.695312 100.234375 C 337.882812 104.097656 341.925781 106.269531 346.085938 106.269531 C 348.070312 106.269531 350.085938 105.773438 351.933594 104.730469 L 363.339844 98.28125 C 366.101562 96.71875 368.09375 94.167969 368.945312 91.101562 C 369.792969 88.035156 369.402344 84.824219 367.835938 82.0625 Z M 299.84375 103.300781 C 291.207031 108.296875 285.433594 109.601562 279.917969 107.816406 C 277.484375 107.027344 274.652344 106.007812 271.375 104.824219 C 261.890625 101.398438 250.113281 97.144531 237.804688 94.875 C 234.820312 93.753906 233.148438 90.898438 233.898438 88.101562 C 234.230469 86.867188 235.113281 83.617188 240.699219 84.230469 C 246.558594 85.4375 252.171875 87.035156 258.105469 88.730469 C 260.96875 89.546875 263.929688 90.390625 266.980469 91.207031 C 267.496094 91.34375 268.011719 91.410156 268.519531 91.410156 C 271.136719 91.410156 273.535156 89.664062 274.246094 87.019531 C 275.09375 83.859375 273.214844 80.609375 270.050781 79.765625 C 267.09375 78.972656 264.179688 78.140625 261.367188 77.339844 C 255.113281 75.554688 249.210938 73.871094 242.8125 72.566406 C 242.777344 72.558594 242.621094 72.53125 242.578125 72.523438 L 237.515625 71.699219 C 229.40625 70.40625 222.195312 71.675781 215.476562 75.582031 L 174.824219 99.230469 C 164.523438 105.222656 156.5 106.242188 153.890625 101.894531 C 152.074219 98.859375 153.078125 94.332031 155.1875 93.035156 L 228.953125 47.667969 C 234.238281 44.417969 240.042969 43.609375 246.214844 45.261719 L 299.722656 59.582031 C 301.238281 59.988281 302.859375 59.773438 304.222656 58.988281 L 310.328125 55.46875 L 328.15625 86.929688 Z M 357.496094 87.972656 L 346.015625 94.402344 C 346.015625 94.402344 346.015625 94.402344 346.015625 94.398438 L 317.679688 44.394531 C 317.679688 44.390625 317.675781 44.390625 317.675781 44.390625 L 312.484375 35.222656 L 312.503906 35.148438 L 323.914062 28.703125 L 323.984375 28.722656 L 357.519531 87.902344 Z M 343.925781 85.011719 C 343.597656 82.789062 345.140625 80.722656 347.363281 80.398438 C 349.589844 80.074219 351.65625 81.613281 351.980469 83.832031 C 352.308594 86.054688 350.765625 88.121094 348.542969 88.445312 C 346.316406 88.769531 344.25 87.230469 343.925781 85.011719 Z M 190.289062 261.984375 L 149.640625 285.628906 C 149.332031 285.808594 149.019531 285.980469 148.710938 286.140625 C 150.929688 277.285156 145.664062 268.125 136.617188 265.195312 C 136.363281 265.113281 136.105469 265.046875 135.839844 265 C 126.835938 263.378906 117.871094 260.492188 109.992188 257.722656 C 75.847656 233.058594 66.011719 187.128906 87.167969 150.53125 C 94.578125 137.714844 105.335938 127.199219 118.132812 120.039062 C 117.046875 122.804688 118.1875 126 120.875 127.425781 C 121.761719 127.894531 122.710938 128.117188 123.648438 128.117188 C 125.773438 128.117188 127.828125 126.976562 128.894531 124.96875 L 136.492188 110.660156 C 137.347656 109.050781 137.414062 107.140625 136.671875 105.476562 C 135.929688 103.8125 134.464844 102.582031 132.695312 102.140625 L 116.964844 98.199219 C 113.785156 97.402344 110.566406 99.332031 109.773438 102.503906 C 109.066406 105.3125 110.5 108.152344 113.042969 109.320312 C 98.082031 117.523438 85.511719 129.703125 76.898438 144.609375 C 65.171875 164.890625 61.484375 188.664062 66.507812 211.554688 C 69.722656 226.207031 76.328125 239.683594 85.671875 251.023438 C 78.097656 251.207031 71.253906 254.449219 65.296875 257.894531 L 37.085938 274.207031 L 35.390625 271.214844 C 33.824219 268.457031 31.273438 266.464844 28.199219 265.617188 C 25.128906 264.765625 21.914062 265.160156 19.152344 266.71875 L 7.746094 273.167969 C 2.027344 276.398438 0.0078125 283.675781 3.246094 289.386719 L 36.777344 348.558594 C 38.339844 351.320312 40.894531 353.308594 43.964844 354.160156 C 45.027344 354.453125 46.105469 354.597656 47.175781 354.597656 C 49.203125 354.597656 51.207031 354.078125 53.015625 353.054688 L 64.417969 346.609375 C 67.183594 345.046875 69.175781 342.496094 70.027344 339.429688 C 70.875 336.359375 70.484375 333.152344 68.921875 330.390625 L 66.597656 326.289062 L 70.664062 323.945312 L 121.796875 337.632812 C 124.875 338.453125 127.9375 338.863281 130.953125 338.863281 C 137.054688 338.863281 142.953125 337.183594 148.347656 333.867188 L 222.113281 288.5 C 230 283.652344 232.453125 271.953125 227.363281 263.46875 C 224.960938 259.457031 215.179688 247.503906 190.289062 261.984375 Z M 58.578125 336.300781 L 47.167969 342.75 L 47.097656 342.726562 L 13.566406 283.546875 L 13.585938 283.476562 L 25.0625 277.046875 C 25.0625 277.046875 25.066406 277.046875 25.066406 277.050781 L 58.597656 336.226562 Z M 215.894531 278.414062 L 142.128906 323.78125 C 136.84375 327.03125 131.035156 327.839844 124.867188 326.191406 L 71.359375 311.871094 C 69.839844 311.460938 68.222656 311.675781 66.859375 312.460938 L 60.753906 315.980469 L 42.925781 284.519531 L 71.238281 268.148438 C 79.875 263.152344 85.648438 261.84375 91.164062 263.632812 C 93.597656 264.421875 96.429688 265.445312 99.707031 266.628906 C 109.191406 270.050781 120.96875 274.304688 133.277344 276.574219 C 136.261719 277.695312 137.933594 280.550781 137.183594 283.347656 C 136.851562 284.582031 135.980469 287.832031 130.382812 287.21875 C 124.527344 286.011719 118.914062 284.414062 112.980469 282.722656 C 110.113281 281.902344 107.152344 281.058594 104.097656 280.242188 C 100.9375 279.398438 97.683594 281.269531 96.835938 284.429688 C 95.988281 287.589844 97.867188 290.835938 101.027344 291.683594 C 103.988281 292.476562 106.902344 293.308594 109.722656 294.109375 C 115.96875 295.894531 121.871094 297.578125 128.269531 298.882812 C 128.308594 298.890625 128.464844 298.917969 128.503906 298.925781 L 133.566406 299.746094 C 141.679688 301.042969 148.886719 299.773438 155.605469 295.863281 L 196.257812 272.21875 C 206.558594 266.226562 214.582031 265.203125 217.191406 269.554688 C 219.007812 272.589844 218.003906 277.117188 215.894531 278.414062 Z M 27.15625 286.441406 C 27.484375 288.664062 25.941406 290.726562 23.71875 291.050781 C 21.492188 291.378906 19.425781 289.839844 19.097656 287.617188 C 18.773438 285.394531 20.3125 283.328125 22.539062 283.003906 C 24.765625 282.679688 26.832031 284.21875 27.15625 286.441406 Z M 27.15625 286.441406 " fill-opacity="1" fill-rule="evenodd"/></g></svg>