<svg xmlns="http://www.w3.org/2000/svg" xmlns:xlink="http://www.w3.org/1999/xlink" width="500" zoomAndPan="magnify" viewBox="0 0 375 374.999991" height="500" preserveAspectRatio="xMidYMid meet" version="1.0"><defs><filter x="0%" y="0%" width="100%" height="100%" id="526619e5ad"><feColorMatrix values="0 0 0 0 1 0 0 0 0 1 0 0 0 0 1 0 0 0 1 0" color-interpolation-filters="sRGB"/></filter><mask id="44b7fc77d9"><g filter="url(#526619e5ad)"><rect x="-37.5" width="450" fill="#000000" y="-37.499999" height="449.999989" fill-opacity="0.36"/></g></mask><clipPath id="a44913bee1"><path d="M 3.480469 374 L 369.59375 374 L 369.59375 375 L 3.480469 375 Z M 3.480469 374 " clip-rule="nonzero"/></clipPath><clipPath id="6f8b4d84ab"><path d="M 3.480469 273 L 369.59375 273 L 369.59375 275 L 3.480469 275 Z M 3.480469 273 " clip-rule="nonzero"/></clipPath><clipPath id="fe8c5f4db0"><path d="M 3.480469 172 L 369.59375 172 L 369.59375 174 L 3.480469 174 Z M 3.480469 172 " clip-rule="nonzero"/></clipPath><clipPath id="83767a416e"><path d="M 3.480469 71 L 369.59375 71 L 369.59375 73 L 3.480469 73 Z M 3.480469 71 " clip-rule="nonzero"/></clipPath><clipPath id="96250e405f"><path d="M 3.480469 314.605469 L 58.835938 314.605469 L 58.835938 375 L 3.480469 375 Z M 3.480469 314.605469 " clip-rule="nonzero"/></clipPath><clipPath id="1f613291f4"><path d="M 61.75 253.910156 L 117.101562 253.910156 L 117.101562 375 L 61.75 375 Z M 61.75 253.910156 " clip-rule="nonzero"/></clipPath><clipPath id="df50539426"><path d="M 129.726562 213.445312 L 185.082031 213.445312 L 185.082031 375 L 129.726562 375 Z M 129.726562 213.445312 " clip-rule="nonzero"/></clipPath><clipPath id="074b1332e2"><path d="M 187.996094 92.058594 L 243.347656 92.058594 L 243.347656 375 L 187.996094 375 Z M 187.996094 92.058594 " clip-rule="nonzero"/></clipPath><clipPath id="994a57705d"><path d="M 255.972656 51.597656 L 311.328125 51.597656 L 311.328125 375 L 255.972656 375 Z M 255.972656 51.597656 " clip-rule="nonzero"/></clipPath><clipPath id="9d76c1afa8"><path d="M 314.242188 11.132812 L 369.59375 11.132812 L 369.59375 375 L 314.242188 375 Z M 314.242188 11.132812 " clip-rule="nonzero"/></clipPath><clipPath id="0cc5599434"><rect x="0" width="371" y="0" height="375"/></clipPath><clipPath id="79a1093991"><path d="M 1 16 L 369.75 16 L 369.75 354.75 L 1 354.75 Z M 1 16 " clip-rule="nonzero"/></clipPath></defs><g mask="url(#44b7fc77d9)"><g transform="matrix(1, 0, 0, 1, 0, 0)"><g clip-path="url(#0cc5599434)"><g clip-path="url(#a44913bee1)"><path stroke-linecap="butt" transform="matrix(0.84657, 0, 0, 0.84657, 3.482039, -29.328539)" fill="none" stroke-linejoin="miter" d="M -0.00185434 477.958377 L 432.464579 477.958377 " stroke="#000000" stroke-width="1" stroke-opacity="0.6" stroke-miterlimit="4"/></g><g clip-path="url(#6f8b4d84ab)"><path stroke-linecap="butt" transform="matrix(0.84657, 0, 0, 0.84657, 3.482039, -29.328539)" fill="none" stroke-linejoin="miter" d="M -0.00185434 358.468905 L 432.464579 358.468905 " stroke="#000000" stroke-width="1" stroke-opacity="0.251" stroke-miterlimit="4"/></g><g clip-path="url(#fe8c5f4db0)"><path stroke-linecap="butt" transform="matrix(0.84657, 0, 0, 0.84657, 3.482039, -29.328539)" fill="none" stroke-linejoin="miter" d="M -0.00185434 238.979433 L 432.464579 238.979433 " stroke="#000000" stroke-width="1" stroke-opacity="0.251" stroke-miterlimit="4"/></g><g clip-path="url(#83767a416e)"><path stroke-linecap="butt" transform="matrix(0.84657, 0, 0, 0.84657, 3.482039, -29.328539)" fill="none" stroke-linejoin="miter" d="M -0.00185434 119.489961 L 432.464579 119.489961 " stroke="#000000" stroke-width="1" stroke-opacity="0.251" stroke-miterlimit="4"/></g><g clip-path="url(#96250e405f)"><path fill="#116b5e" d="M 7.910156 314.605469 L 54.40625 314.605469 C 54.699219 314.605469 54.988281 314.632812 55.273438 314.6875 C 55.558594 314.746094 55.832031 314.828125 56.101562 314.941406 C 56.371094 315.050781 56.625 315.1875 56.867188 315.351562 C 57.109375 315.511719 57.332031 315.695312 57.539062 315.902344 C 57.746094 316.105469 57.929688 316.328125 58.089844 316.570312 C 58.25 316.8125 58.386719 317.070312 58.5 317.335938 C 58.609375 317.605469 58.695312 317.882812 58.75 318.167969 C 58.808594 318.453125 58.835938 318.742188 58.835938 319.03125 L 58.835938 375.296875 C 58.835938 375.589844 58.808594 375.875 58.75 376.160156 C 58.695312 376.445312 58.609375 376.722656 58.5 376.992188 C 58.386719 377.261719 58.25 377.515625 58.089844 377.757812 C 57.929688 378 57.746094 378.222656 57.539062 378.429688 C 57.332031 378.632812 57.109375 378.816406 56.867188 378.980469 C 56.625 379.140625 56.371094 379.277344 56.101562 379.386719 C 55.832031 379.5 55.558594 379.582031 55.273438 379.640625 C 54.988281 379.699219 54.699219 379.726562 54.40625 379.726562 L 7.910156 379.726562 C 7.621094 379.726562 7.332031 379.699219 7.046875 379.640625 C 6.761719 379.582031 6.484375 379.5 6.214844 379.386719 C 5.945312 379.277344 5.691406 379.140625 5.449219 378.980469 C 5.207031 378.816406 4.984375 378.632812 4.777344 378.429688 C 4.574219 378.222656 4.390625 378 4.226562 377.757812 C 4.066406 377.515625 3.929688 377.261719 3.820312 376.992188 C 3.707031 376.722656 3.625 376.445312 3.566406 376.160156 C 3.511719 375.875 3.480469 375.589844 3.480469 375.296875 L 3.480469 319.03125 C 3.480469 318.742188 3.511719 318.453125 3.566406 318.167969 C 3.625 317.882812 3.707031 317.605469 3.820312 317.335938 C 3.929688 317.070312 4.066406 316.8125 4.226562 316.570312 C 4.390625 316.328125 4.574219 316.105469 4.777344 315.902344 C 4.984375 315.695312 5.207031 315.511719 5.449219 315.351562 C 5.691406 315.1875 5.945312 315.050781 6.214844 314.941406 C 6.484375 314.828125 6.761719 314.746094 7.046875 314.6875 C 7.332031 314.632812 7.621094 314.605469 7.910156 314.605469 Z M 7.910156 314.605469 " fill-opacity="1" fill-rule="nonzero"/></g><g clip-path="url(#1f613291f4)"><path fill="#11386b" d="M 66.175781 253.910156 L 112.675781 253.910156 C 112.964844 253.910156 113.253906 253.9375 113.539062 253.996094 C 113.824219 254.050781 114.101562 254.136719 114.371094 254.246094 C 114.636719 254.359375 114.894531 254.496094 115.136719 254.65625 C 115.375 254.816406 115.601562 255 115.804688 255.207031 C 116.011719 255.414062 116.195312 255.636719 116.355469 255.878906 C 116.519531 256.121094 116.65625 256.375 116.765625 256.644531 C 116.878906 256.910156 116.960938 257.1875 117.019531 257.472656 C 117.074219 257.757812 117.101562 258.046875 117.101562 258.339844 L 117.101562 375.296875 C 117.101562 375.589844 117.074219 375.875 117.019531 376.160156 C 116.960938 376.445312 116.878906 376.722656 116.765625 376.992188 C 116.65625 377.261719 116.519531 377.515625 116.355469 377.757812 C 116.195312 378 116.011719 378.222656 115.804688 378.429688 C 115.601562 378.632812 115.375 378.816406 115.136719 378.980469 C 114.894531 379.140625 114.636719 379.277344 114.371094 379.390625 C 114.101562 379.5 113.824219 379.582031 113.539062 379.640625 C 113.253906 379.699219 112.964844 379.726562 112.675781 379.726562 L 66.175781 379.726562 C 65.886719 379.726562 65.597656 379.699219 65.3125 379.640625 C 65.027344 379.582031 64.75 379.5 64.484375 379.386719 C 64.214844 379.277344 63.960938 379.140625 63.71875 378.980469 C 63.476562 378.816406 63.25 378.632812 63.046875 378.429688 C 62.839844 378.222656 62.65625 378 62.496094 377.757812 C 62.335938 377.515625 62.199219 377.261719 62.085938 376.992188 C 61.976562 376.722656 61.890625 376.445312 61.835938 376.160156 C 61.777344 375.875 61.75 375.589844 61.75 375.296875 L 61.75 258.339844 C 61.75 258.046875 61.777344 257.757812 61.835938 257.472656 C 61.890625 257.1875 61.976562 256.910156 62.085938 256.644531 C 62.199219 256.375 62.335938 256.121094 62.496094 255.878906 C 62.65625 255.636719 62.839844 255.414062 63.046875 255.207031 C 63.25 255 63.476562 254.816406 63.71875 254.65625 C 63.960938 254.496094 64.214844 254.359375 64.484375 254.246094 C 64.75 254.136719 65.027344 254.050781 65.3125 253.996094 C 65.597656 253.9375 65.886719 253.910156 66.175781 253.910156 Z M 66.175781 253.910156 " fill-opacity="1" fill-rule="nonzero"/></g><g clip-path="url(#df50539426)"><path fill="#116b5e" d="M 134.15625 213.445312 L 180.652344 213.445312 C 180.945312 213.445312 181.230469 213.476562 181.515625 213.53125 C 181.800781 213.589844 182.078125 213.671875 182.347656 213.785156 C 182.617188 213.894531 182.871094 214.03125 183.113281 214.195312 C 183.355469 214.355469 183.578125 214.539062 183.785156 214.742188 C 183.988281 214.949219 184.171875 215.171875 184.335938 215.414062 C 184.496094 215.65625 184.632812 215.914062 184.746094 216.179688 C 184.855469 216.449219 184.941406 216.726562 184.996094 217.011719 C 185.054688 217.296875 185.082031 217.585938 185.082031 217.875 L 185.082031 375.296875 C 185.082031 375.589844 185.054688 375.875 184.996094 376.160156 C 184.941406 376.445312 184.855469 376.722656 184.746094 376.992188 C 184.632812 377.261719 184.496094 377.515625 184.335938 377.757812 C 184.171875 378 183.988281 378.222656 183.785156 378.429688 C 183.578125 378.632812 183.355469 378.816406 183.113281 378.980469 C 182.871094 379.140625 182.617188 379.277344 182.347656 379.386719 C 182.078125 379.5 181.800781 379.582031 181.515625 379.640625 C 181.230469 379.699219 180.945312 379.726562 180.652344 379.726562 L 134.15625 379.726562 C 133.867188 379.726562 133.578125 379.699219 133.292969 379.640625 C 133.007812 379.582031 132.730469 379.5 132.460938 379.386719 C 132.191406 379.277344 131.9375 379.140625 131.695312 378.980469 C 131.453125 378.816406 131.230469 378.632812 131.023438 378.429688 C 130.820312 378.222656 130.636719 378 130.472656 377.757812 C 130.3125 377.515625 130.175781 377.261719 130.066406 376.992188 C 129.953125 376.722656 129.871094 376.445312 129.8125 376.160156 C 129.757812 375.875 129.726562 375.589844 129.726562 375.296875 L 129.726562 217.875 C 129.726562 217.585938 129.757812 217.296875 129.8125 217.011719 C 129.871094 216.726562 129.953125 216.449219 130.066406 216.179688 C 130.175781 215.914062 130.3125 215.65625 130.472656 215.414062 C 130.636719 215.171875 130.820312 214.949219 131.023438 214.742188 C 131.230469 214.539062 131.453125 214.355469 131.695312 214.195312 C 131.9375 214.03125 132.191406 213.894531 132.460938 213.785156 C 132.730469 213.671875 133.007812 213.589844 133.292969 213.53125 C 133.578125 213.476562 133.867188 213.445312 134.15625 213.445312 Z M 134.15625 213.445312 " fill-opacity="1" fill-rule="nonzero"/></g><g clip-path="url(#074b1332e2)"><path fill="#11386b" d="M 192.421875 92.058594 L 238.921875 92.058594 C 239.210938 92.058594 239.5 92.085938 239.785156 92.144531 C 240.070312 92.199219 240.347656 92.285156 240.613281 92.394531 C 240.882812 92.507812 241.140625 92.644531 241.378906 92.804688 C 241.621094 92.96875 241.847656 93.152344 242.050781 93.355469 C 242.257812 93.5625 242.441406 93.785156 242.601562 94.027344 C 242.765625 94.269531 242.902344 94.523438 243.011719 94.792969 C 243.121094 95.0625 243.207031 95.339844 243.265625 95.625 C 243.320312 95.910156 243.347656 96.195312 243.347656 96.488281 L 243.347656 375.296875 C 243.347656 375.589844 243.320312 375.875 243.265625 376.160156 C 243.207031 376.445312 243.121094 376.722656 243.011719 376.992188 C 242.902344 377.261719 242.765625 377.515625 242.601562 377.757812 C 242.441406 378 242.257812 378.222656 242.050781 378.429688 C 241.847656 378.632812 241.621094 378.816406 241.378906 378.980469 C 241.140625 379.140625 240.882812 379.277344 240.613281 379.386719 C 240.347656 379.5 240.070312 379.582031 239.785156 379.640625 C 239.5 379.699219 239.210938 379.726562 238.921875 379.726562 L 192.421875 379.726562 C 192.132812 379.726562 191.84375 379.699219 191.558594 379.640625 C 191.273438 379.582031 190.996094 379.5 190.730469 379.386719 C 190.460938 379.277344 190.203125 379.140625 189.964844 378.980469 C 189.722656 378.816406 189.496094 378.632812 189.292969 378.429688 C 189.085938 378.222656 188.902344 378 188.742188 377.757812 C 188.578125 377.515625 188.441406 377.261719 188.332031 376.992188 C 188.222656 376.722656 188.136719 376.445312 188.078125 376.160156 C 188.023438 375.875 187.996094 375.589844 187.996094 375.296875 L 187.996094 96.488281 C 187.996094 96.195312 188.023438 95.910156 188.078125 95.625 C 188.136719 95.339844 188.222656 95.0625 188.332031 94.792969 C 188.441406 94.523438 188.578125 94.269531 188.742188 94.027344 C 188.902344 93.785156 189.085938 93.5625 189.292969 93.355469 C 189.496094 93.152344 189.722656 92.96875 189.964844 92.804688 C 190.203125 92.644531 190.460938 92.507812 190.730469 92.394531 C 190.996094 92.285156 191.273438 92.199219 191.558594 92.144531 C 191.84375 92.085938 192.132812 92.058594 192.421875 92.058594 Z M 192.421875 92.058594 " fill-opacity="1" fill-rule="nonzero"/></g><g clip-path="url(#994a57705d)"><path fill="#116b5e" d="M 260.402344 51.597656 L 306.898438 51.597656 C 307.191406 51.597656 307.476562 51.625 307.761719 51.683594 C 308.046875 51.738281 308.324219 51.824219 308.59375 51.933594 C 308.863281 52.046875 309.117188 52.179688 309.359375 52.34375 C 309.601562 52.503906 309.824219 52.6875 310.03125 52.894531 C 310.234375 53.097656 310.417969 53.324219 310.582031 53.566406 C 310.742188 53.804688 310.878906 54.0625 310.992188 54.332031 C 311.101562 54.597656 311.183594 54.875 311.242188 55.160156 C 311.300781 55.445312 311.328125 55.734375 311.328125 56.023438 L 311.328125 375.296875 C 311.328125 375.589844 311.300781 375.875 311.242188 376.160156 C 311.183594 376.445312 311.101562 376.722656 310.992188 376.992188 C 310.878906 377.261719 310.742188 377.515625 310.582031 377.757812 C 310.417969 378 310.234375 378.222656 310.03125 378.429688 C 309.824219 378.632812 309.601562 378.816406 309.359375 378.980469 C 309.117188 379.140625 308.863281 379.277344 308.59375 379.390625 C 308.324219 379.5 308.046875 379.582031 307.761719 379.640625 C 307.476562 379.699219 307.191406 379.726562 306.898438 379.726562 L 260.402344 379.726562 C 260.109375 379.726562 259.824219 379.699219 259.539062 379.640625 C 259.253906 379.582031 258.976562 379.5 258.707031 379.386719 C 258.4375 379.277344 258.183594 379.140625 257.941406 378.980469 C 257.699219 378.816406 257.476562 378.632812 257.269531 378.429688 C 257.066406 378.222656 256.882812 378 256.71875 377.757812 C 256.558594 377.515625 256.421875 377.261719 256.308594 376.992188 C 256.199219 376.722656 256.113281 376.445312 256.058594 376.160156 C 256 375.875 255.972656 375.589844 255.972656 375.296875 L 255.972656 56.023438 C 255.972656 55.734375 256 55.445312 256.058594 55.160156 C 256.113281 54.875 256.199219 54.597656 256.308594 54.332031 C 256.421875 54.0625 256.558594 53.804688 256.71875 53.566406 C 256.882812 53.324219 257.066406 53.097656 257.269531 52.894531 C 257.476562 52.6875 257.699219 52.503906 257.941406 52.34375 C 258.183594 52.179688 258.4375 52.046875 258.707031 51.933594 C 258.976562 51.824219 259.253906 51.738281 259.539062 51.683594 C 259.824219 51.625 260.109375 51.597656 260.402344 51.597656 Z M 260.402344 51.597656 " fill-opacity="1" fill-rule="nonzero"/></g><g clip-path="url(#9d76c1afa8)"><path fill="#11386b" d="M 318.667969 11.132812 L 365.167969 11.132812 C 365.457031 11.132812 365.746094 11.164062 366.03125 11.21875 C 366.316406 11.277344 366.59375 11.359375 366.859375 11.472656 C 367.128906 11.582031 367.382812 11.71875 367.625 11.878906 C 367.867188 12.042969 368.09375 12.226562 368.296875 12.429688 C 368.503906 12.636719 368.6875 12.859375 368.847656 13.101562 C 369.011719 13.34375 369.144531 13.597656 369.257812 13.867188 C 369.367188 14.136719 369.453125 14.414062 369.507812 14.699219 C 369.566406 14.984375 369.59375 15.273438 369.59375 15.5625 L 369.59375 375.296875 C 369.59375 375.589844 369.566406 375.875 369.507812 376.160156 C 369.453125 376.445312 369.367188 376.722656 369.257812 376.992188 C 369.144531 377.261719 369.007812 377.515625 368.847656 377.757812 C 368.6875 378 368.503906 378.222656 368.296875 378.429688 C 368.09375 378.632812 367.867188 378.816406 367.625 378.980469 C 367.382812 379.140625 367.128906 379.277344 366.859375 379.386719 C 366.59375 379.5 366.316406 379.582031 366.03125 379.640625 C 365.746094 379.699219 365.457031 379.726562 365.167969 379.726562 L 318.667969 379.726562 C 318.378906 379.726562 318.089844 379.699219 317.804688 379.640625 C 317.519531 379.582031 317.242188 379.5 316.972656 379.386719 C 316.707031 379.277344 316.449219 379.140625 316.207031 378.980469 C 315.96875 378.816406 315.742188 378.632812 315.539062 378.429688 C 315.332031 378.222656 315.148438 378 314.988281 377.757812 C 314.824219 377.515625 314.6875 377.261719 314.578125 376.992188 C 314.464844 376.722656 314.382812 376.445312 314.324219 376.160156 C 314.269531 375.875 314.242188 375.589844 314.242188 375.296875 L 314.242188 15.5625 C 314.242188 15.273438 314.269531 14.984375 314.324219 14.699219 C 314.382812 14.414062 314.464844 14.136719 314.578125 13.867188 C 314.6875 13.597656 314.824219 13.34375 314.988281 13.101562 C 315.148438 12.859375 315.332031 12.636719 315.539062 12.429688 C 315.742188 12.226562 315.96875 12.042969 316.207031 11.878906 C 316.449219 11.71875 316.707031 11.582031 316.972656 11.472656 C 317.242188 11.359375 317.519531 11.277344 317.804688 11.21875 C 318.089844 11.164062 318.378906 11.132812 318.667969 11.132812 Z M 318.667969 11.132812 " fill-opacity="1" fill-rule="nonzero"/></g></g></g></g><g clip-path="url(#79a1093991)"><path fill="#ffffff" d="M 131.261719 135.425781 C 117.292969 135.425781 105.929688 146.789062 105.929688 160.757812 C 105.929688 167.507812 108.589844 173.644531 112.910156 178.1875 C 99.035156 184.480469 88.929688 197.71875 87.210938 213.777344 C 87.035156 215.449219 87.574219 217.117188 88.699219 218.371094 C 89.824219 219.621094 91.425781 220.335938 93.105469 220.335938 L 169.414062 220.335938 C 171.097656 220.335938 172.699219 219.621094 173.824219 218.371094 C 174.949219 217.117188 175.488281 215.449219 175.308594 213.777344 C 174.964844 210.574219 174.277344 207.488281 173.304688 204.539062 L 197.613281 204.539062 C 196.636719 207.488281 195.949219 210.574219 195.609375 213.777344 C 195.429688 215.449219 195.96875 217.117188 197.09375 218.371094 C 198.21875 219.621094 199.820312 220.335938 201.5 220.335938 L 277.808594 220.335938 C 279.492188 220.335938 281.09375 219.621094 282.21875 218.371094 C 283.34375 217.117188 283.882812 215.449219 283.703125 213.777344 C 281.988281 197.71875 271.882812 184.480469 258.007812 178.1875 C 262.328125 173.644531 264.984375 167.507812 264.984375 160.757812 C 264.984375 146.789062 253.621094 135.425781 239.65625 135.425781 C 225.6875 135.425781 214.324219 146.789062 214.324219 160.757812 C 214.324219 164.464844 215.132812 167.988281 216.570312 171.164062 C 212.859375 167.496094 208.546875 164.527344 203.820312 162.386719 C 208.132812 157.839844 210.785156 151.707031 210.785156 144.964844 C 210.785156 130.996094 199.421875 119.632812 185.457031 119.632812 C 171.488281 119.632812 160.125 130.996094 160.125 144.964844 C 160.125 151.707031 162.78125 157.839844 167.09375 162.386719 C 162.367188 164.527344 158.050781 167.496094 154.34375 171.164062 C 155.78125 167.988281 156.589844 164.464844 156.589844 160.757812 C 156.589844 146.789062 145.226562 135.425781 131.261719 135.425781 Z M 117.785156 160.757812 C 117.785156 153.328125 123.832031 147.28125 131.261719 147.28125 C 138.691406 147.28125 144.738281 153.328125 144.738281 160.757812 C 144.738281 168.1875 138.691406 174.234375 131.261719 174.234375 C 123.832031 174.234375 117.785156 168.1875 117.785156 160.757812 Z M 100.390625 208.480469 C 104.632812 195.34375 116.921875 186.085938 131.261719 186.085938 C 145.597656 186.085938 157.886719 195.34375 162.128906 208.480469 Z M 270.527344 208.480469 L 208.789062 208.480469 C 213.03125 195.34375 225.320312 186.085938 239.65625 186.085938 C 253.996094 186.085938 266.285156 195.34375 270.527344 208.480469 Z M 239.65625 147.28125 C 247.085938 147.28125 253.132812 153.328125 253.132812 160.757812 C 253.132812 168.1875 247.085938 174.234375 239.65625 174.234375 C 232.226562 174.234375 226.179688 168.1875 226.179688 160.757812 C 226.179688 153.328125 232.226562 147.28125 239.65625 147.28125 Z M 171.984375 144.960938 C 171.984375 137.53125 178.027344 131.488281 185.460938 131.488281 C 192.890625 131.488281 198.933594 137.53125 198.933594 144.960938 C 198.933594 152.394531 192.890625 158.4375 185.460938 158.4375 C 178.027344 158.4375 171.984375 152.394531 171.984375 144.960938 Z M 185.457031 170.292969 C 196.144531 170.292969 205.886719 175.429688 211.914062 183.957031 C 208.777344 186.472656 205.992188 189.40625 203.636719 192.683594 L 167.28125 192.683594 C 164.925781 189.40625 162.140625 186.46875 159.003906 183.957031 C 165.03125 175.429688 174.773438 170.292969 185.457031 170.292969 Z M 367.671875 82.117188 L 334.15625 22.898438 C 330.925781 17.179688 323.640625 15.164062 317.925781 18.398438 L 306.527344 24.851562 C 300.8125 28.085938 298.792969 35.367188 302.027344 41.082031 L 304.351562 45.183594 L 300.285156 47.53125 L 249.175781 33.832031 C 239.871094 31.339844 230.691406 32.640625 222.636719 37.597656 L 148.902344 83 C 141.019531 87.855469 138.566406 99.5625 143.652344 108.054688 C 146.054688 112.066406 155.832031 124.03125 180.714844 109.542969 L 221.34375 85.875 C 221.652344 85.695312 221.960938 85.527344 222.273438 85.363281 C 220.054688 94.226562 225.316406 103.398438 234.359375 106.328125 C 234.613281 106.410156 234.875 106.476562 235.136719 106.523438 C 244.140625 108.148438 253.097656 111.035156 260.972656 113.804688 C 295.105469 138.492188 304.9375 184.457031 283.789062 221.082031 C 276.382812 233.910156 265.628906 244.433594 252.835938 251.601562 C 253.921875 248.832031 252.785156 245.632812 250.097656 244.207031 C 247.203125 242.671875 243.617188 243.773438 242.082031 246.664062 L 234.484375 260.984375 C 233.632812 262.597656 233.566406 264.507812 234.308594 266.175781 C 235.046875 267.839844 236.511719 269.070312 238.28125 269.511719 L 254.003906 273.457031 C 254.488281 273.578125 254.972656 273.636719 255.449219 273.636719 C 258.105469 273.636719 260.519531 271.839844 261.195312 269.148438 C 261.902344 266.335938 260.46875 263.496094 257.925781 262.328125 C 272.878906 254.117188 285.445312 241.925781 294.054688 227.011719 C 305.773438 206.714844 309.464844 182.917969 304.441406 160.011719 C 301.226562 145.34375 294.621094 131.851562 285.277344 120.503906 C 292.851562 120.320312 299.695312 117.082031 305.652344 113.632812 L 333.851562 97.304688 L 335.546875 100.300781 C 335.546875 100.300781 335.546875 100.300781 335.546875 100.304688 C 337.734375 104.167969 341.773438 106.34375 345.929688 106.34375 C 347.917969 106.34375 349.929688 105.847656 351.777344 104.800781 L 363.179688 98.347656 C 365.941406 96.785156 367.929688 94.230469 368.78125 91.164062 C 369.628906 88.089844 369.238281 84.878906 367.671875 82.117188 Z M 299.710938 103.371094 C 291.078125 108.371094 285.304688 109.679688 279.792969 107.890625 C 277.359375 107.101562 274.53125 106.078125 271.257812 104.894531 C 261.773438 101.464844 250.003906 97.210938 237.699219 94.9375 C 234.714844 93.816406 233.046875 90.957031 233.796875 88.160156 C 234.125 86.925781 235.007812 83.671875 240.59375 84.285156 C 246.449219 85.496094 252.058594 87.09375 257.992188 88.789062 C 260.855469 89.605469 263.8125 90.449219 266.863281 91.269531 C 267.378906 91.40625 267.894531 91.472656 268.402344 91.472656 C 271.019531 91.472656 273.414062 89.722656 274.125 87.074219 C 274.972656 83.914062 273.09375 80.664062 269.933594 79.816406 C 266.976562 79.023438 264.0625 78.191406 261.25 77.386719 C 255 75.605469 249.101562 73.917969 242.703125 72.613281 C 242.667969 72.605469 242.511719 72.574219 242.472656 72.570312 L 237.410156 71.746094 C 229.304688 70.449219 222.097656 71.722656 215.378906 75.632812 L 174.746094 99.296875 C 164.449219 105.296875 156.429688 106.316406 153.824219 101.964844 C 152.003906 98.925781 153.011719 94.394531 155.117188 93.097656 L 228.851562 47.695312 C 234.136719 44.441406 239.9375 43.628906 246.105469 45.285156 L 299.589844 59.617188 C 301.105469 60.023438 302.726562 59.8125 304.085938 59.023438 L 310.1875 55.5 L 328.007812 86.988281 Z M 357.335938 88.03125 L 345.863281 94.464844 C 345.863281 94.464844 345.863281 94.464844 345.859375 94.460938 L 317.539062 44.414062 C 317.539062 44.414062 317.535156 44.414062 317.535156 44.414062 L 312.34375 35.238281 L 312.367188 35.164062 L 323.769531 28.710938 L 323.84375 28.734375 L 357.359375 87.960938 Z M 343.769531 85.066406 C 343.445312 82.839844 344.984375 80.773438 347.210938 80.449219 C 349.433594 80.125 351.5 81.664062 351.824219 83.886719 C 352.152344 86.113281 350.613281 88.179688 348.386719 88.503906 C 346.164062 88.828125 344.097656 87.289062 343.769531 85.066406 Z M 190.203125 262.179688 L 149.574219 285.84375 C 149.265625 286.023438 148.953125 286.195312 148.644531 286.355469 C 150.863281 277.496094 145.597656 268.324219 136.558594 265.394531 C 136.304688 265.3125 136.042969 265.246094 135.78125 265.199219 C 126.777344 263.574219 117.820312 260.6875 109.945312 257.914062 C 75.8125 233.230469 65.980469 187.265625 87.128906 150.636719 C 94.535156 137.808594 105.289062 127.289062 118.082031 120.121094 C 116.996094 122.890625 118.132812 126.089844 120.824219 127.515625 C 121.707031 127.984375 122.660156 128.207031 123.59375 128.207031 C 125.71875 128.207031 127.773438 127.0625 128.835938 125.058594 L 136.433594 110.734375 C 137.285156 109.125 137.351562 107.214844 136.609375 105.546875 C 135.871094 103.882812 134.40625 102.652344 132.636719 102.207031 L 116.914062 98.265625 C 113.734375 97.464844 110.519531 99.398438 109.722656 102.574219 C 109.019531 105.386719 110.449219 108.226562 112.992188 109.394531 C 98.039062 117.605469 85.472656 129.796875 76.863281 144.710938 C 65.144531 165.007812 61.457031 188.800781 66.476562 211.710938 C 69.691406 226.375 76.292969 239.863281 85.632812 251.210938 C 78.0625 251.394531 71.222656 254.640625 65.269531 258.085938 L 37.070312 274.414062 L 35.375 271.417969 C 33.808594 268.65625 31.257812 266.667969 28.1875 265.816406 C 25.117188 264.964844 21.90625 265.355469 19.144531 266.921875 L 7.742188 273.371094 C 2.027344 276.605469 0.0078125 283.886719 3.246094 289.605469 L 36.761719 348.824219 C 38.324219 351.585938 40.875 353.578125 43.945312 354.429688 C 45.007812 354.722656 46.085938 354.867188 47.15625 354.867188 C 49.183594 354.867188 51.183594 354.347656 52.992188 353.324219 L 64.390625 346.871094 C 67.152344 345.308594 69.144531 342.753906 69.996094 339.683594 C 70.84375 336.617188 70.453125 333.402344 68.890625 330.640625 L 66.566406 326.539062 L 70.632812 324.191406 L 121.742188 337.886719 C 124.820312 338.710938 127.878906 339.121094 130.894531 339.121094 C 136.992188 339.121094 142.886719 337.441406 148.28125 334.121094 L 222.015625 288.71875 C 229.898438 283.863281 232.351562 272.15625 227.265625 263.664062 C 224.859375 259.652344 215.085938 247.6875 190.203125 262.179688 Z M 58.550781 336.554688 L 47.148438 343.007812 L 47.078125 342.984375 L 13.558594 283.761719 L 13.582031 283.691406 L 25.050781 277.253906 C 25.050781 277.253906 25.054688 277.253906 25.054688 277.257812 L 58.574219 336.480469 Z M 215.800781 278.625 L 142.066406 324.027344 C 136.78125 327.277344 130.976562 328.089844 124.8125 326.4375 L 71.328125 312.105469 C 69.808594 311.699219 68.191406 311.910156 66.828125 312.699219 L 60.726562 316.21875 L 42.90625 284.730469 L 71.207031 268.347656 C 79.839844 263.351562 85.609375 262.039062 91.121094 263.828125 C 93.554688 264.617188 96.386719 265.640625 99.660156 266.828125 C 109.144531 270.253906 120.914062 274.511719 133.21875 276.78125 C 136.203125 277.902344 137.871094 280.761719 137.121094 283.5625 C 136.789062 284.796875 135.921875 288.046875 130.324219 287.4375 C 124.472656 286.226562 118.859375 284.628906 112.929688 282.933594 C 110.066406 282.117188 107.105469 281.269531 104.050781 280.453125 C 100.890625 279.609375 97.640625 281.480469 96.792969 284.644531 C 95.945312 287.804688 97.824219 291.054688 100.984375 291.902344 C 103.941406 292.695312 106.855469 293.527344 109.675781 294.332031 C 115.917969 296.117188 121.816406 297.800781 128.210938 299.109375 C 128.25 299.117188 128.40625 299.144531 128.449219 299.152344 L 133.503906 299.972656 C 141.617188 301.269531 148.820312 300 155.539062 296.085938 L 196.167969 272.421875 C 206.464844 266.425781 214.484375 265.402344 217.09375 269.757812 C 218.914062 272.792969 217.90625 277.328125 215.800781 278.625 Z M 27.144531 286.65625 C 27.472656 288.878906 25.929688 290.945312 23.707031 291.273438 C 21.480469 291.597656 19.414062 290.058594 19.089844 287.832031 C 18.765625 285.609375 20.304688 283.542969 22.53125 283.21875 C 24.753906 282.890625 26.820312 284.429688 27.144531 286.65625 Z M 27.144531 286.65625 " fill-opacity="1" fill-rule="evenodd"/></g></svg>