<svg xmlns="http://www.w3.org/2000/svg" xmlns:xlink="http://www.w3.org/1999/xlink" width="500" zoomAndPan="magnify" viewBox="0 0 375 149.999998" height="200" preserveAspectRatio="xMidYMid meet" version="1.0"><defs><g/></defs><path fill="#ffffff" d="M 62.148438 82.164062 C 59.132812 82.164062 56.679688 79.710938 56.679688 76.699219 L 56.679688 73.292969 C 56.679688 70.277344 59.132812 67.828125 62.148438 67.828125 C 64.5 67.828125 66.585938 69.324219 67.332031 71.558594 C 67.472656 71.980469 67.246094 72.4375 66.824219 72.578125 C 66.402344 72.71875 65.945312 72.492188 65.804688 72.070312 C 65.277344 70.496094 63.808594 69.4375 62.148438 69.4375 C 60.023438 69.4375 58.292969 71.167969 58.292969 73.292969 L 58.292969 76.699219 C 58.292969 78.824219 60.023438 80.554688 62.148438 80.554688 C 63.550781 80.554688 64.847656 79.789062 65.523438 78.558594 C 65.738281 78.167969 66.230469 78.023438 66.621094 78.238281 C 67.007812 78.453125 67.152344 78.945312 66.9375 79.335938 C 65.972656 81.082031 64.136719 82.164062 62.148438 82.164062 Z M 62.148438 82.164062 " fill-opacity="1" fill-rule="nonzero"/><path fill="#ffffff" d="M 92.503906 82.164062 C 92.058594 82.164062 91.699219 81.804688 91.699219 81.359375 L 91.699219 70.800781 L 87.621094 75.523438 C 87.46875 75.699219 87.246094 75.800781 87.011719 75.800781 C 86.777344 75.800781 86.554688 75.699219 86.402344 75.523438 L 82.328125 70.800781 L 82.328125 81.359375 C 82.328125 81.804688 81.964844 82.164062 81.519531 82.164062 C 81.074219 82.164062 80.714844 81.804688 80.714844 81.359375 L 80.714844 68.632812 C 80.714844 68.296875 80.925781 67.996094 81.238281 67.878906 C 81.554688 67.757812 81.910156 67.851562 82.128906 68.105469 L 87.011719 73.761719 L 91.894531 68.105469 C 92.113281 67.851562 92.46875 67.757812 92.785156 67.878906 C 93.101562 67.996094 93.308594 68.296875 93.308594 68.632812 L 93.308594 81.359375 C 93.308594 81.804688 92.949219 82.164062 92.503906 82.164062 Z M 92.503906 82.164062 " fill-opacity="1" fill-rule="nonzero"/><path fill="#ffffff" d="M 70.230469 82.164062 C 69.785156 82.164062 69.425781 81.804688 69.425781 81.359375 L 69.425781 68.632812 C 69.425781 68.1875 69.785156 67.828125 70.230469 67.828125 C 70.675781 67.828125 71.035156 68.1875 71.035156 68.632812 L 71.035156 81.359375 C 71.035156 81.804688 70.675781 82.164062 70.230469 82.164062 Z M 70.230469 82.164062 " fill-opacity="1" fill-rule="nonzero"/><path fill="#ffffff" d="M 77.855469 82.164062 C 77.589844 82.164062 77.332031 82.03125 77.175781 81.792969 L 73.117188 75.429688 C 72.878906 75.054688 72.988281 74.554688 73.363281 74.316406 C 73.738281 74.078125 74.238281 74.1875 74.476562 74.5625 L 78.535156 80.925781 C 78.773438 81.300781 78.664062 81.800781 78.289062 82.039062 C 78.15625 82.125 78.003906 82.164062 77.855469 82.164062 Z M 77.855469 82.164062 " fill-opacity="1" fill-rule="nonzero"/><path fill="#ffffff" d="M 74.675781 75.800781 L 70.230469 75.800781 C 69.785156 75.800781 69.425781 75.441406 69.425781 74.996094 L 69.425781 68.632812 C 69.425781 68.1875 69.785156 67.828125 70.230469 67.828125 L 74.675781 67.828125 C 76.875 67.828125 78.664062 69.613281 78.664062 71.8125 C 78.664062 74.011719 76.875 75.800781 74.675781 75.800781 Z M 71.035156 74.191406 L 74.675781 74.191406 C 75.984375 74.191406 77.050781 73.125 77.050781 71.8125 C 77.050781 70.503906 75.984375 69.4375 74.675781 69.4375 L 71.035156 69.4375 Z M 71.035156 74.191406 " fill-opacity="1" fill-rule="nonzero"/><path fill="#ffffff" d="M 74.996094 47.207031 C 68.691406 47.207031 62.761719 44.75 58.304688 40.292969 C 53.847656 35.832031 51.390625 29.90625 51.390625 23.601562 C 51.390625 17.296875 53.847656 11.367188 58.304688 6.910156 C 62.761719 2.453125 68.691406 -0.00390625 74.996094 -0.00390625 C 81.300781 -0.00390625 87.226562 2.453125 91.6875 6.910156 C 96.144531 11.367188 98.601562 17.296875 98.601562 23.601562 C 98.601562 29.90625 96.144531 35.832031 91.6875 40.292969 C 87.226562 44.75 81.300781 47.207031 74.996094 47.207031 Z M 74.996094 1.609375 C 69.121094 1.609375 63.597656 3.894531 59.445312 8.050781 C 55.289062 12.203125 53.003906 17.726562 53.003906 23.601562 C 53.003906 29.476562 55.289062 35 59.445312 39.152344 C 63.597656 43.304688 69.121094 45.59375 74.996094 45.59375 C 80.871094 45.59375 86.394531 43.304688 90.546875 39.152344 C 94.699219 35 96.988281 29.476562 96.988281 23.601562 C 96.988281 17.726562 94.699219 12.203125 90.546875 8.050781 C 86.394531 3.894531 80.871094 1.609375 74.996094 1.609375 Z M 74.996094 1.609375 " fill-opacity="1" fill-rule="nonzero"/><path fill="#ffffff" d="M 74.996094 149.996094 C 68.691406 149.996094 62.761719 147.539062 58.304688 143.082031 C 53.847656 138.621094 51.390625 132.695312 51.390625 126.390625 C 51.390625 120.085938 53.847656 114.15625 58.304688 109.699219 C 62.761719 105.242188 68.691406 102.785156 74.996094 102.785156 C 81.300781 102.785156 87.226562 105.242188 91.6875 109.699219 C 96.144531 114.15625 98.601562 120.085938 98.601562 126.390625 C 98.601562 132.695312 96.144531 138.621094 91.6875 143.082031 C 87.226562 147.539062 81.300781 149.996094 74.996094 149.996094 Z M 74.996094 104.398438 C 69.121094 104.398438 63.597656 106.683594 59.445312 110.839844 C 55.289062 114.992188 53.003906 120.515625 53.003906 126.390625 C 53.003906 132.265625 55.289062 137.789062 59.445312 141.941406 C 63.597656 146.09375 69.121094 148.382812 74.996094 148.382812 C 80.871094 148.382812 86.394531 146.09375 90.546875 141.941406 C 94.699219 137.789062 96.988281 132.265625 96.988281 126.390625 C 96.988281 120.515625 94.699219 114.992188 90.546875 110.839844 C 86.394531 106.683594 80.871094 104.398438 74.996094 104.398438 Z M 74.996094 104.398438 " fill-opacity="1" fill-rule="nonzero"/><path fill="#ffffff" d="M 126.390625 98.601562 C 120.085938 98.601562 114.15625 96.144531 109.699219 91.6875 C 105.242188 87.226562 102.785156 81.300781 102.785156 74.996094 C 102.785156 68.691406 105.242188 62.761719 109.699219 58.304688 C 114.15625 53.847656 120.085938 51.390625 126.390625 51.390625 C 132.695312 51.390625 138.621094 53.847656 143.082031 58.304688 C 147.539062 62.761719 149.996094 68.691406 149.996094 74.996094 C 149.996094 81.300781 147.539062 87.226562 143.082031 91.6875 C 138.621094 96.144531 132.695312 98.601562 126.390625 98.601562 Z M 126.390625 53.003906 C 120.515625 53.003906 114.992188 55.289062 110.839844 59.445312 C 106.683594 63.597656 104.398438 69.121094 104.398438 74.996094 C 104.398438 80.871094 106.683594 86.394531 110.839844 90.546875 C 114.992188 94.699219 120.515625 96.988281 126.390625 96.988281 C 132.265625 96.988281 137.789062 94.699219 141.941406 90.546875 C 146.09375 86.394531 148.382812 80.871094 148.382812 74.996094 C 148.382812 69.121094 146.09375 63.597656 141.941406 59.445312 C 137.789062 55.289062 132.265625 53.003906 126.390625 53.003906 Z M 126.390625 53.003906 " fill-opacity="1" fill-rule="nonzero"/><path fill="#ffffff" d="M 23.601562 98.601562 C 17.296875 98.601562 11.367188 96.144531 6.910156 91.6875 C 2.453125 87.226562 -0.00390625 81.300781 -0.00390625 74.996094 C -0.00390625 68.691406 2.453125 62.761719 6.910156 58.304688 C 11.367188 53.847656 17.296875 51.390625 23.601562 51.390625 C 29.90625 51.390625 35.832031 53.847656 40.292969 58.304688 C 44.75 62.761719 47.207031 68.691406 47.207031 74.996094 C 47.207031 81.300781 44.75 87.226562 40.292969 91.6875 C 35.832031 96.144531 29.90625 98.601562 23.601562 98.601562 Z M 23.601562 53.003906 C 17.726562 53.003906 12.203125 55.289062 8.050781 59.445312 C 3.894531 63.597656 1.609375 69.121094 1.609375 74.996094 C 1.609375 80.871094 3.894531 86.394531 8.050781 90.546875 C 12.203125 94.699219 17.726562 96.988281 23.601562 96.988281 C 29.476562 96.988281 35 94.699219 39.152344 90.546875 C 43.304688 86.394531 45.59375 80.871094 45.59375 74.996094 C 45.59375 69.121094 43.304688 63.597656 39.152344 59.445312 C 35 55.289062 29.476562 53.003906 23.601562 53.003906 Z M 23.601562 53.003906 " fill-opacity="1" fill-rule="nonzero"/><path fill="#ffffff" d="M 64.65625 32.855469 L 60.320312 32.855469 C 59.875 32.855469 59.515625 32.496094 59.515625 32.050781 L 59.515625 27.710938 C 59.515625 27.269531 59.875 26.90625 60.320312 26.90625 L 64.65625 26.90625 C 65.101562 26.90625 65.464844 27.269531 65.464844 27.710938 L 65.464844 32.050781 C 65.464844 32.496094 65.101562 32.855469 64.65625 32.855469 Z M 61.125 31.242188 L 63.851562 31.242188 L 63.851562 28.519531 L 61.125 28.519531 Z M 61.125 31.242188 " fill-opacity="1" fill-rule="nonzero"/><path fill="#ffffff" d="M 73.320312 32.855469 L 68.984375 32.855469 C 68.539062 32.855469 68.179688 32.496094 68.179688 32.050781 L 68.179688 24.484375 C 68.179688 24.039062 68.539062 23.675781 68.984375 23.675781 L 73.320312 23.675781 C 73.765625 23.675781 74.128906 24.039062 74.128906 24.484375 L 74.128906 32.050781 C 74.128906 32.496094 73.765625 32.855469 73.320312 32.855469 Z M 69.789062 31.242188 L 72.515625 31.242188 L 72.515625 25.289062 L 69.789062 25.289062 Z M 69.789062 31.242188 " fill-opacity="1" fill-rule="nonzero"/><path fill="#ffffff" d="M 81.984375 32.855469 L 77.648438 32.855469 C 77.203125 32.855469 76.839844 32.496094 76.839844 32.050781 L 76.839844 21.316406 C 76.839844 20.871094 77.203125 20.511719 77.648438 20.511719 L 81.984375 20.511719 C 82.429688 20.511719 82.789062 20.871094 82.789062 21.316406 L 82.789062 32.050781 C 82.789062 32.496094 82.429688 32.855469 81.984375 32.855469 Z M 78.453125 31.242188 L 81.179688 31.242188 L 81.179688 22.121094 L 78.453125 22.121094 Z M 78.453125 31.242188 " fill-opacity="1" fill-rule="nonzero"/><path fill="#ffffff" d="M 90.648438 32.855469 L 86.3125 32.855469 C 85.867188 32.855469 85.503906 32.496094 85.503906 32.050781 L 85.503906 17.101562 C 85.503906 16.65625 85.867188 16.292969 86.3125 16.292969 L 90.648438 16.292969 C 91.09375 16.292969 91.453125 16.65625 91.453125 17.101562 L 91.453125 32.050781 C 91.453125 32.496094 91.09375 32.855469 90.648438 32.855469 Z M 87.117188 31.242188 L 89.84375 31.242188 L 89.84375 17.90625 L 87.117188 17.90625 Z M 87.117188 31.242188 " fill-opacity="1" fill-rule="nonzero"/><path fill="#ffffff" d="M 62.488281 23.65625 C 62.199219 23.65625 61.921875 23.5 61.777344 23.222656 C 61.570312 22.832031 61.71875 22.34375 62.113281 22.136719 L 82.648438 11.3125 C 83.042969 11.101562 83.527344 11.253906 83.734375 11.648438 C 83.945312 12.042969 83.792969 12.527344 83.398438 12.734375 L 62.863281 23.5625 C 62.746094 23.625 62.617188 23.65625 62.488281 23.65625 Z M 62.488281 23.65625 " fill-opacity="1" fill-rule="nonzero"/><path fill="#ffffff" d="M 82.265625 17.140625 C 82.207031 17.140625 82.152344 17.132812 82.09375 17.121094 C 81.660156 17.027344 81.382812 16.601562 81.476562 16.164062 L 82.273438 12.460938 L 78.566406 11.664062 C 78.132812 11.570312 77.855469 11.140625 77.949219 10.707031 C 78.042969 10.269531 78.46875 9.996094 78.90625 10.085938 L 83.398438 11.054688 C 83.832031 11.144531 84.109375 11.574219 84.015625 12.011719 L 83.050781 16.503906 C 82.96875 16.882812 82.636719 17.140625 82.265625 17.140625 Z M 82.265625 17.140625 " fill-opacity="1" fill-rule="nonzero"/><path fill="#ffffff" d="M 23.601562 74.171875 C 19.421875 74.171875 16.019531 70.773438 16.019531 66.589844 C 16.019531 62.410156 19.421875 59.011719 23.601562 59.011719 C 27.78125 59.011719 31.179688 62.410156 31.179688 66.589844 C 31.179688 70.773438 27.78125 74.171875 23.601562 74.171875 Z M 23.601562 60.621094 C 20.308594 60.621094 17.632812 63.300781 17.632812 66.589844 C 17.632812 69.882812 20.308594 72.5625 23.601562 72.5625 C 26.890625 72.5625 29.570312 69.882812 29.570312 66.589844 C 29.570312 63.300781 26.890625 60.621094 23.601562 60.621094 Z M 23.601562 60.621094 " fill-opacity="1" fill-rule="nonzero"/><path fill="#ffffff" d="M 23.601562 98.601562 C 15.726562 98.601562 8.398438 94.691406 3.996094 88.144531 C 3.867188 87.949219 3.828125 87.707031 3.890625 87.480469 C 5.71875 80.980469 10.628906 75.808594 17.027344 73.640625 C 17.289062 73.550781 17.578125 73.601562 17.792969 73.777344 C 19.429688 75.101562 21.492188 75.832031 23.601562 75.832031 C 25.710938 75.832031 27.773438 75.101562 29.410156 73.777344 C 29.625 73.601562 29.914062 73.550781 30.175781 73.640625 C 36.574219 75.808594 41.484375 80.980469 43.3125 87.480469 C 43.375 87.707031 43.335938 87.949219 43.203125 88.144531 C 38.804688 94.691406 31.476562 98.601562 23.601562 98.601562 Z M 5.546875 87.554688 C 9.667969 93.46875 16.386719 96.988281 23.601562 96.988281 C 30.8125 96.988281 37.535156 93.46875 41.65625 87.554688 C 39.9375 81.875 35.644531 77.34375 30.0625 75.308594 C 28.203125 76.6875 25.925781 77.445312 23.601562 77.445312 C 21.277344 77.445312 19 76.6875 17.136719 75.308594 C 11.558594 77.34375 7.265625 81.875 5.546875 87.554688 Z M 5.546875 87.554688 " fill-opacity="1" fill-rule="nonzero"/><path fill="#ffffff" d="M 97.429688 123.109375 C 97.300781 123.109375 97.175781 123.078125 97.058594 123.019531 C 96.835938 122.90625 96.679688 122.695312 96.636719 122.445312 C 95.730469 117.445312 93.078125 112.871094 89.167969 109.574219 C 85.214844 106.234375 80.179688 104.398438 74.996094 104.398438 C 69.8125 104.398438 64.777344 106.234375 60.824219 109.574219 C 56.914062 112.871094 54.261719 117.445312 53.355469 122.445312 C 53.3125 122.695312 53.152344 122.90625 52.929688 123.019531 C 52.707031 123.136719 52.445312 123.140625 52.21875 123.03125 C 41.175781 117.785156 32.203125 108.816406 26.960938 97.773438 C 26.851562 97.546875 26.855469 97.285156 26.96875 97.058594 C 27.085938 96.835938 27.296875 96.679688 27.542969 96.636719 C 32.546875 95.730469 37.121094 93.078125 40.417969 89.167969 C 43.753906 85.210938 45.59375 80.179688 45.59375 74.996094 C 45.59375 69.8125 43.753906 64.777344 40.417969 60.820312 C 37.121094 56.914062 32.546875 54.261719 27.542969 53.355469 C 27.296875 53.3125 27.085938 53.152344 26.96875 52.929688 C 26.855469 52.707031 26.851562 52.445312 26.960938 52.21875 C 32.203125 41.175781 41.175781 32.203125 52.21875 26.960938 C 52.445312 26.851562 52.707031 26.855469 52.929688 26.96875 C 53.152344 27.085938 53.3125 27.296875 53.355469 27.542969 C 54.261719 32.546875 56.914062 37.121094 60.824219 40.417969 C 64.777344 43.753906 69.8125 45.59375 74.996094 45.59375 C 80.179688 45.59375 85.214844 43.753906 89.167969 40.417969 C 93.078125 37.121094 95.730469 32.546875 96.636719 27.542969 C 96.679688 27.296875 96.835938 27.085938 97.058594 26.96875 C 97.285156 26.855469 97.546875 26.851562 97.773438 26.960938 C 108.816406 32.203125 117.785156 41.175781 123.03125 52.21875 C 123.140625 52.445312 123.136719 52.707031 123.019531 52.929688 C 122.90625 53.152344 122.695312 53.3125 122.449219 53.355469 C 117.445312 54.261719 112.871094 56.914062 109.574219 60.820312 C 106.234375 64.777344 104.398438 69.8125 104.398438 74.996094 C 104.398438 80.179688 106.234375 85.210938 109.574219 89.167969 C 112.871094 93.078125 117.445312 95.730469 122.449219 96.636719 C 122.695312 96.679688 122.90625 96.835938 123.019531 97.058594 C 123.136719 97.285156 123.140625 97.546875 123.03125 97.773438 C 117.785156 108.816406 108.816406 117.785156 97.773438 123.03125 C 97.664062 123.082031 97.546875 123.109375 97.429688 123.109375 Z M 74.996094 102.785156 C 80.558594 102.785156 85.960938 104.757812 90.207031 108.339844 C 94.132812 111.652344 96.875 116.160156 98.007812 121.125 C 107.984375 116.136719 116.136719 107.984375 121.125 98.007812 C 116.160156 96.875 111.652344 94.132812 108.339844 90.207031 C 104.757812 85.960938 102.785156 80.558594 102.785156 74.996094 C 102.785156 69.433594 104.757812 64.027344 108.339844 59.78125 C 111.652344 55.859375 116.160156 53.117188 121.125 51.980469 C 116.136719 42.003906 107.984375 33.855469 98.007812 28.867188 C 96.875 33.832031 94.132812 38.339844 90.207031 41.648438 C 85.960938 45.230469 80.558594 47.207031 74.996094 47.207031 C 69.433594 47.207031 64.027344 45.230469 59.78125 41.648438 C 55.859375 38.339844 53.117188 33.832031 51.980469 28.867188 C 42.003906 33.855469 33.855469 42.003906 28.867188 51.980469 C 33.832031 53.117188 38.339844 55.859375 41.648438 59.78125 C 45.230469 64.027344 47.207031 69.433594 47.207031 74.996094 C 47.207031 80.558594 45.230469 85.960938 41.648438 90.207031 C 38.339844 94.132812 33.832031 96.875 28.867188 98.007812 C 33.855469 107.984375 42.003906 116.136719 51.980469 121.125 C 53.117188 116.160156 55.859375 111.652344 59.78125 108.339844 C 64.027344 104.757812 69.433594 102.785156 74.996094 102.785156 Z M 74.996094 102.785156 " fill-opacity="1" fill-rule="nonzero"/><path fill="#ffffff" d="M 23.601562 98.601562 C 15.726562 98.601562 8.398438 94.691406 3.996094 88.144531 C 3.867188 87.949219 3.828125 87.707031 3.890625 87.480469 C 5.71875 80.980469 10.628906 75.808594 17.027344 73.640625 C 17.289062 73.550781 17.578125 73.601562 17.792969 73.777344 C 19.429688 75.101562 21.492188 75.832031 23.601562 75.832031 C 25.710938 75.832031 27.773438 75.101562 29.410156 73.777344 C 29.625 73.601562 29.914062 73.550781 30.175781 73.640625 C 36.574219 75.808594 41.484375 80.980469 43.3125 87.480469 C 43.375 87.707031 43.335938 87.949219 43.203125 88.144531 C 38.804688 94.691406 31.476562 98.601562 23.601562 98.601562 Z M 5.546875 87.554688 C 9.667969 93.46875 16.386719 96.988281 23.601562 96.988281 C 30.8125 96.988281 37.535156 93.46875 41.65625 87.554688 C 39.9375 81.875 35.644531 77.34375 30.0625 75.308594 C 28.203125 76.6875 25.925781 77.445312 23.601562 77.445312 C 21.277344 77.445312 19 76.6875 17.136719 75.308594 C 11.558594 77.34375 7.265625 81.875 5.546875 87.554688 Z M 5.546875 87.554688 " fill-opacity="1" fill-rule="nonzero"/><path fill="#ffffff" d="M 69.675781 139.234375 C 69.570312 139.234375 69.460938 139.210938 69.355469 139.167969 C 69.0625 139.039062 68.871094 138.75 68.871094 138.425781 L 68.871094 134.652344 L 67.632812 134.652344 C 64.929688 134.652344 62.726562 132.453125 62.726562 129.746094 L 62.726562 122.757812 C 62.726562 120.054688 64.929688 117.851562 67.632812 117.851562 L 82.355469 117.851562 C 85.0625 117.851562 87.265625 120.054688 87.265625 122.757812 L 87.265625 129.746094 C 87.265625 132.453125 85.0625 134.652344 82.355469 134.652344 L 74.894531 134.652344 L 70.226562 139.015625 C 70.074219 139.15625 69.878906 139.234375 69.675781 139.234375 Z M 67.632812 119.464844 C 65.816406 119.464844 64.339844 120.941406 64.339844 122.757812 L 64.339844 129.746094 C 64.339844 131.5625 65.816406 133.042969 67.632812 133.042969 L 69.675781 133.042969 C 70.121094 133.042969 70.484375 133.402344 70.484375 133.847656 L 70.484375 136.570312 L 74.027344 133.257812 C 74.175781 133.121094 74.371094 133.042969 74.578125 133.042969 L 82.355469 133.042969 C 84.175781 133.042969 85.652344 131.5625 85.652344 129.746094 L 85.652344 122.757812 C 85.652344 120.941406 84.175781 119.464844 82.355469 119.464844 Z M 67.632812 119.464844 " fill-opacity="1" fill-rule="nonzero"/><path fill="#ffffff" d="M 129.132812 91.882812 L 123.648438 91.882812 C 123.203125 91.882812 122.84375 91.523438 122.84375 91.078125 L 122.84375 87.378906 C 121.902344 87.109375 121 86.734375 120.144531 86.257812 L 117.527344 88.875 C 117.210938 89.1875 116.703125 89.1875 116.386719 88.875 L 112.511719 85 C 112.359375 84.847656 112.273438 84.640625 112.273438 84.429688 C 112.273438 84.214844 112.359375 84.011719 112.511719 83.859375 L 115.128906 81.242188 C 114.652344 80.386719 114.277344 79.480469 114.007812 78.542969 L 110.308594 78.542969 C 109.863281 78.542969 109.503906 78.183594 109.503906 77.738281 L 109.503906 72.253906 C 109.503906 71.808594 109.863281 71.449219 110.308594 71.449219 L 114.007812 71.449219 C 114.277344 70.507812 114.652344 69.605469 115.128906 68.75 L 112.511719 66.132812 C 112.359375 65.980469 112.273438 65.777344 112.273438 65.5625 C 112.273438 65.347656 112.359375 65.144531 112.511719 64.992188 L 116.386719 61.117188 C 116.703125 60.800781 117.210938 60.800781 117.527344 61.117188 L 120.144531 63.734375 C 121 63.257812 121.902344 62.882812 122.84375 62.613281 L 122.84375 58.914062 C 122.84375 58.46875 123.203125 58.109375 123.648438 58.109375 L 129.132812 58.109375 C 129.574219 58.109375 129.9375 58.46875 129.9375 58.914062 L 129.9375 62.613281 C 130.875 62.882812 131.78125 63.257812 132.636719 63.734375 L 135.253906 61.117188 C 135.566406 60.800781 136.078125 60.800781 136.394531 61.117188 L 140.269531 64.992188 C 140.582031 65.308594 140.582031 65.816406 140.269531 66.132812 L 137.652344 68.75 C 138.128906 69.605469 138.503906 70.507812 138.773438 71.449219 L 142.472656 71.449219 C 142.917969 71.449219 143.277344 71.808594 143.277344 72.253906 L 143.277344 77.738281 C 143.277344 78.183594 142.917969 78.542969 142.472656 78.542969 L 138.773438 78.542969 C 138.503906 79.480469 138.128906 80.386719 137.652344 81.242188 L 140.269531 83.859375 C 140.421875 84.011719 140.503906 84.214844 140.503906 84.429688 C 140.503906 84.640625 140.421875 84.847656 140.269531 85 L 136.394531 88.875 C 136.078125 89.1875 135.566406 89.1875 135.253906 88.875 L 132.636719 86.257812 C 131.78125 86.734375 130.875 87.109375 129.9375 87.378906 L 129.9375 91.078125 C 129.9375 91.523438 129.574219 91.882812 129.132812 91.882812 Z M 124.453125 90.269531 L 128.324219 90.269531 L 128.324219 86.753906 C 128.324219 86.378906 128.582031 86.054688 128.949219 85.96875 C 130.148438 85.691406 131.289062 85.21875 132.339844 84.5625 C 132.65625 84.363281 133.070312 84.414062 133.335938 84.675781 L 135.824219 87.164062 L 138.558594 84.429688 L 136.070312 81.941406 C 135.808594 81.675781 135.757812 81.261719 135.957031 80.945312 C 136.613281 79.894531 137.085938 78.753906 137.363281 77.554688 C 137.449219 77.1875 137.773438 76.929688 138.148438 76.929688 L 141.664062 76.929688 L 141.664062 73.058594 L 138.148438 73.058594 C 137.773438 73.058594 137.449219 72.800781 137.363281 72.4375 C 137.085938 71.238281 136.613281 70.097656 135.957031 69.046875 C 135.757812 68.726562 135.808594 68.316406 136.070312 68.050781 L 138.558594 65.5625 L 135.824219 62.824219 L 133.335938 65.3125 C 133.070312 65.578125 132.65625 65.625 132.339844 65.425781 C 131.289062 64.773438 130.148438 64.300781 128.949219 64.023438 C 128.582031 63.9375 128.324219 63.613281 128.324219 63.238281 L 128.324219 59.71875 L 124.453125 59.71875 L 124.453125 63.238281 C 124.453125 63.613281 124.195312 63.9375 123.832031 64.023438 C 122.632812 64.300781 121.492188 64.773438 120.441406 65.425781 C 120.125 65.625 119.710938 65.578125 119.445312 65.3125 L 116.957031 62.824219 L 114.21875 65.5625 L 116.707031 68.050781 C 116.972656 68.316406 117.019531 68.726562 116.824219 69.046875 C 116.167969 70.097656 115.695312 71.238281 115.417969 72.4375 C 115.332031 72.800781 115.007812 73.058594 114.632812 73.058594 L 111.113281 73.058594 L 111.113281 76.929688 L 114.632812 76.929688 C 115.007812 76.929688 115.332031 77.1875 115.417969 77.554688 C 115.695312 78.753906 116.167969 79.894531 116.824219 80.945312 C 117.019531 81.261719 116.972656 81.675781 116.707031 81.941406 L 114.21875 84.429688 L 116.957031 87.164062 L 119.445312 84.675781 C 119.710938 84.414062 120.125 84.363281 120.441406 84.5625 C 121.492188 85.21875 122.632812 85.691406 123.832031 85.96875 C 124.195312 86.054688 124.453125 86.378906 124.453125 86.753906 Z M 124.453125 90.269531 " fill-opacity="1" fill-rule="nonzero"/><path fill="#ffffff" d="M 126.390625 81.671875 C 122.707031 81.671875 119.710938 78.675781 119.710938 74.996094 C 119.710938 71.3125 122.707031 68.316406 126.390625 68.316406 C 130.070312 68.316406 133.066406 71.3125 133.066406 74.996094 C 133.066406 78.675781 130.070312 81.671875 126.390625 81.671875 Z M 126.390625 69.929688 C 123.597656 69.929688 121.324219 72.203125 121.324219 74.996094 C 121.324219 77.789062 123.597656 80.0625 126.390625 80.0625 C 129.183594 80.0625 131.457031 77.789062 131.457031 74.996094 C 131.457031 72.203125 129.183594 69.929688 126.390625 69.929688 Z M 126.390625 69.929688 " fill-opacity="1" fill-rule="nonzero"/><g fill="#ffffff" fill-opacity="1"><g transform="translate(152.7539, 86.093066)"><g><path d="M 14.953125 -6.453125 C 14.953125 -7.410156 14.613281 -8.144531 13.9375 -8.65625 C 13.257812 -9.175781 12.039062 -9.71875 10.28125 -10.28125 C 8.53125 -10.851562 7.144531 -11.414062 6.125 -11.96875 C 3.320312 -13.476562 1.921875 -15.507812 1.921875 -18.0625 C 1.921875 -19.394531 2.296875 -20.582031 3.046875 -21.625 C 3.796875 -22.664062 4.867188 -23.476562 6.265625 -24.0625 C 7.671875 -24.644531 9.25 -24.9375 11 -24.9375 C 12.757812 -24.9375 14.328125 -24.617188 15.703125 -23.984375 C 17.078125 -23.347656 18.144531 -22.445312 18.90625 -21.28125 C 19.664062 -20.125 20.046875 -18.8125 20.046875 -17.34375 L 14.96875 -17.34375 C 14.96875 -18.46875 14.613281 -19.34375 13.90625 -19.96875 C 13.195312 -20.59375 12.203125 -20.90625 10.921875 -20.90625 C 9.679688 -20.90625 8.71875 -20.640625 8.03125 -20.109375 C 7.34375 -19.585938 7 -18.898438 7 -18.046875 C 7 -17.242188 7.398438 -16.570312 8.203125 -16.03125 C 9.003906 -15.488281 10.191406 -14.984375 11.765625 -14.515625 C 14.648438 -13.648438 16.75 -12.570312 18.0625 -11.28125 C 19.382812 -10 20.046875 -8.398438 20.046875 -6.484375 C 20.046875 -4.359375 19.238281 -2.6875 17.625 -1.46875 C 16.007812 -0.257812 13.84375 0.34375 11.125 0.34375 C 9.226562 0.34375 7.5 0 5.9375 -0.6875 C 4.382812 -1.382812 3.203125 -2.335938 2.390625 -3.546875 C 1.578125 -4.753906 1.171875 -6.148438 1.171875 -7.734375 L 6.25 -7.734375 C 6.25 -5.023438 7.875 -3.671875 11.125 -3.671875 C 12.320312 -3.671875 13.257812 -3.914062 13.9375 -4.40625 C 14.613281 -4.894531 14.953125 -5.578125 14.953125 -6.453125 Z M 14.953125 -6.453125 "/></g></g></g><g fill="#ffffff" fill-opacity="1"><g transform="translate(174.020272, 86.093066)"><g><path d="M 7.59375 0 L 2.515625 0 L 2.515625 -24.609375 L 7.59375 -24.609375 Z M 7.59375 0 "/></g></g></g><g fill="#ffffff" fill-opacity="1"><g transform="translate(184.104485, 86.093066)"><g><path d="M 8.828125 -24.609375 L 15.140625 -6.765625 L 21.421875 -24.609375 L 28.09375 -24.609375 L 28.09375 0 L 23 0 L 23 -6.71875 L 23.5 -18.328125 L 16.859375 0 L 13.390625 0 L 6.765625 -18.3125 L 7.265625 -6.71875 L 7.265625 0 L 2.203125 0 L 2.203125 -24.609375 Z M 8.828125 -24.609375 "/></g></g></g><g fill="#ffffff" fill-opacity="1"><g transform="translate(214.407797, 86.093066)"><g><path d="M 7.265625 -8.671875 L 7.265625 0 L 2.203125 0 L 2.203125 -24.609375 L 11.796875 -24.609375 C 13.640625 -24.609375 15.265625 -24.269531 16.671875 -23.59375 C 18.078125 -22.914062 19.15625 -21.953125 19.90625 -20.703125 C 20.664062 -19.460938 21.046875 -18.046875 21.046875 -16.453125 C 21.046875 -14.046875 20.21875 -12.144531 18.5625 -10.75 C 16.914062 -9.363281 14.632812 -8.671875 11.71875 -8.671875 Z M 7.265625 -12.78125 L 11.796875 -12.78125 C 13.140625 -12.78125 14.160156 -13.09375 14.859375 -13.71875 C 15.566406 -14.351562 15.921875 -15.253906 15.921875 -16.421875 C 15.921875 -17.628906 15.566406 -18.601562 14.859375 -19.34375 C 14.148438 -20.09375 13.164062 -20.476562 11.90625 -20.5 L 7.265625 -20.5 Z M 7.265625 -12.78125 "/></g></g></g><g fill="#ffffff" fill-opacity="1"><g transform="translate(236.721441, 86.093066)"><g><path d="M 7.265625 -4.078125 L 18.03125 -4.078125 L 18.03125 0 L 2.203125 0 L 2.203125 -24.609375 L 7.265625 -24.609375 Z M 7.265625 -4.078125 "/></g></g></g><g fill="#ffffff" fill-opacity="1"><g transform="translate(255.45409, 86.093066)"><g><path d="M 17 -10.65625 L 7.265625 -10.65625 L 7.265625 -4.078125 L 18.6875 -4.078125 L 18.6875 0 L 2.203125 0 L 2.203125 -24.609375 L 18.65625 -24.609375 L 18.65625 -20.5 L 7.265625 -20.5 L 7.265625 -14.640625 L 17 -14.640625 Z M 17 -10.65625 "/></g></g></g><g fill="#ffffff" fill-opacity="1"><g transform="translate(274.913074, 86.093066)"><g/></g></g><g fill="#ffffff" fill-opacity="1"><g transform="translate(283.527728, 86.093066)"><g><path d="M 21.515625 -8.203125 C 21.316406 -5.546875 20.335938 -3.457031 18.578125 -1.9375 C 16.816406 -0.414062 14.492188 0.34375 11.609375 0.34375 C 8.453125 0.34375 5.96875 -0.71875 4.15625 -2.84375 C 2.351562 -4.96875 1.453125 -7.882812 1.453125 -11.59375 L 1.453125 -13.09375 C 1.453125 -15.457031 1.867188 -17.539062 2.703125 -19.34375 C 3.535156 -21.144531 4.726562 -22.523438 6.28125 -23.484375 C 7.832031 -24.453125 9.628906 -24.9375 11.671875 -24.9375 C 14.515625 -24.9375 16.800781 -24.175781 18.53125 -22.65625 C 20.269531 -21.132812 21.273438 -19 21.546875 -16.25 L 16.484375 -16.25 C 16.359375 -17.84375 15.914062 -18.992188 15.15625 -19.703125 C 14.394531 -20.421875 13.234375 -20.78125 11.671875 -20.78125 C 9.984375 -20.78125 8.71875 -20.175781 7.875 -18.96875 C 7.039062 -17.757812 6.613281 -15.878906 6.59375 -13.328125 L 6.59375 -11.46875 C 6.59375 -8.8125 6.992188 -6.867188 7.796875 -5.640625 C 8.597656 -4.410156 9.867188 -3.796875 11.609375 -3.796875 C 13.171875 -3.796875 14.335938 -4.15625 15.109375 -4.875 C 15.890625 -5.59375 16.332031 -6.703125 16.4375 -8.203125 Z M 21.515625 -8.203125 "/></g></g></g><g fill="#ffffff" fill-opacity="1"><g transform="translate(306.162309, 86.093066)"><g><path d="M 11.3125 -9 L 7.265625 -9 L 7.265625 0 L 2.203125 0 L 2.203125 -24.609375 L 11.34375 -24.609375 C 14.25 -24.609375 16.488281 -23.957031 18.0625 -22.65625 C 19.644531 -21.363281 20.4375 -19.535156 20.4375 -17.171875 C 20.4375 -15.492188 20.070312 -14.09375 19.34375 -12.96875 C 18.613281 -11.84375 17.507812 -10.953125 16.03125 -10.296875 L 21.359375 -0.234375 L 21.359375 0 L 15.921875 0 Z M 7.265625 -13.109375 L 11.359375 -13.109375 C 12.628906 -13.109375 13.613281 -13.429688 14.3125 -14.078125 C 15.007812 -14.734375 15.359375 -15.628906 15.359375 -16.765625 C 15.359375 -17.921875 15.03125 -18.832031 14.375 -19.5 C 13.71875 -20.164062 12.707031 -20.5 11.34375 -20.5 L 7.265625 -20.5 Z M 7.265625 -13.109375 "/></g></g></g><g fill="#ffffff" fill-opacity="1"><g transform="translate(328.239471, 86.093066)"><g><path d="M 8.828125 -24.609375 L 15.140625 -6.765625 L 21.421875 -24.609375 L 28.09375 -24.609375 L 28.09375 0 L 23 0 L 23 -6.71875 L 23.5 -18.328125 L 16.859375 0 L 13.390625 0 L 6.765625 -18.3125 L 7.265625 -6.71875 L 7.265625 0 L 2.203125 0 L 2.203125 -24.609375 Z M 8.828125 -24.609375 "/></g></g></g></svg>