<svg xmlns="http://www.w3.org/2000/svg" xmlns:xlink="http://www.w3.org/1999/xlink" width="500" zoomAndPan="magnify" viewBox="0 0 375 149.999998" height="200" preserveAspectRatio="xMidYMid meet" version="1.0"><defs><g/><clipPath id="43e18cc252"><path d="M 0 8.109375 L 145.5 8.109375 L 145.5 141.609375 L 0 141.609375 Z M 0 8.109375 " clip-rule="nonzero"/></clipPath></defs><g clip-path="url(#43e18cc252)"><path fill="#ffffff" d="M 51.640625 55.488281 C 46.148438 55.488281 41.675781 59.957031 41.675781 65.453125 C 41.675781 68.109375 42.722656 70.523438 44.421875 72.3125 C 38.964844 74.789062 34.988281 79.996094 34.3125 86.3125 C 34.242188 86.972656 34.453125 87.628906 34.894531 88.121094 C 35.339844 88.613281 35.96875 88.894531 36.628906 88.894531 L 66.652344 88.894531 C 67.316406 88.894531 67.945312 88.613281 68.386719 88.121094 C 68.828125 87.628906 69.042969 86.972656 68.972656 86.3125 C 68.835938 85.054688 68.566406 83.839844 68.183594 82.679688 L 77.746094 82.679688 C 77.363281 83.839844 77.09375 85.054688 76.957031 86.3125 C 76.886719 86.972656 77.101562 87.628906 77.542969 88.121094 C 77.984375 88.613281 78.617188 88.894531 79.277344 88.894531 L 109.300781 88.894531 C 109.960938 88.894531 110.589844 88.613281 111.035156 88.121094 C 111.476562 87.628906 111.6875 86.972656 111.617188 86.3125 C 110.941406 79.996094 106.964844 74.789062 101.507812 72.3125 C 103.207031 70.523438 104.253906 68.109375 104.253906 65.453125 C 104.253906 59.957031 99.78125 55.488281 94.289062 55.488281 C 88.792969 55.488281 84.320312 59.957031 84.320312 65.453125 C 84.320312 66.914062 84.640625 68.296875 85.207031 69.546875 C 83.746094 68.105469 82.046875 66.9375 80.1875 66.09375 C 81.886719 64.304688 82.929688 61.894531 82.929688 59.242188 C 82.929688 53.746094 78.460938 49.273438 72.964844 49.273438 C 67.46875 49.273438 63 53.746094 63 59.242188 C 63 61.894531 64.042969 64.308594 65.738281 66.09375 C 63.878906 66.9375 62.183594 68.105469 60.722656 69.546875 C 61.289062 68.296875 61.605469 66.914062 61.605469 65.453125 C 61.609375 59.957031 57.136719 55.488281 51.640625 55.488281 Z M 46.339844 65.453125 C 46.339844 62.53125 48.71875 60.152344 51.640625 60.152344 C 54.566406 60.152344 56.945312 62.53125 56.945312 65.453125 C 56.945312 68.378906 54.566406 70.757812 51.640625 70.757812 C 48.71875 70.757812 46.339844 68.378906 46.339844 65.453125 Z M 39.496094 84.230469 C 41.167969 79.0625 46 75.417969 51.640625 75.417969 C 57.28125 75.417969 62.117188 79.0625 63.785156 84.230469 Z M 106.433594 84.230469 L 82.144531 84.230469 C 83.8125 79.0625 88.648438 75.417969 94.289062 75.417969 C 99.929688 75.417969 104.765625 79.0625 106.433594 84.230469 Z M 94.289062 60.152344 C 97.210938 60.152344 99.589844 62.53125 99.589844 65.453125 C 99.589844 68.378906 97.210938 70.757812 94.289062 70.757812 C 91.363281 70.757812 88.988281 68.378906 88.988281 65.453125 C 88.988281 62.53125 91.363281 60.152344 94.289062 60.152344 Z M 67.664062 59.238281 C 67.664062 56.316406 70.042969 53.9375 72.964844 53.9375 C 75.890625 53.9375 78.265625 56.316406 78.265625 59.238281 C 78.265625 62.164062 75.890625 64.542969 72.964844 64.542969 C 70.042969 64.542969 67.664062 62.164062 67.664062 59.238281 Z M 72.964844 69.207031 C 77.167969 69.207031 81 71.226562 83.375 74.582031 C 82.140625 75.570312 81.042969 76.726562 80.117188 78.015625 L 65.8125 78.015625 C 64.886719 76.726562 63.789062 75.570312 62.554688 74.582031 C 64.929688 71.226562 68.761719 69.207031 72.964844 69.207031 Z M 144.652344 34.515625 L 131.46875 11.214844 C 130.195312 8.964844 127.332031 8.171875 125.082031 9.445312 L 120.597656 11.984375 C 118.347656 13.257812 117.554688 16.121094 118.828125 18.371094 L 119.742188 19.984375 L 118.140625 20.90625 L 98.03125 15.519531 C 94.371094 14.539062 90.761719 15.050781 87.59375 17 L 58.582031 34.863281 C 55.480469 36.773438 54.515625 41.378906 56.515625 44.71875 C 57.460938 46.296875 61.308594 51.003906 71.097656 45.304688 L 87.082031 35.992188 C 87.203125 35.921875 87.328125 35.855469 87.449219 35.792969 C 86.574219 39.28125 88.648438 42.886719 92.203125 44.039062 C 92.304688 44.074219 92.40625 44.097656 92.511719 44.117188 C 96.050781 44.753906 99.578125 45.890625 102.675781 46.980469 C 116.101562 56.695312 119.972656 74.777344 111.652344 89.1875 C 108.738281 94.234375 104.507812 98.375 99.472656 101.195312 C 99.898438 100.105469 99.453125 98.847656 98.394531 98.285156 C 97.257812 97.683594 95.84375 98.113281 95.242188 99.253906 L 92.253906 104.886719 C 91.917969 105.519531 91.890625 106.273438 92.183594 106.929688 C 92.476562 107.582031 93.050781 108.066406 93.746094 108.242188 L 99.933594 109.792969 C 100.125 109.839844 100.316406 109.863281 100.503906 109.863281 C 101.546875 109.863281 102.496094 109.15625 102.761719 108.097656 C 103.039062 106.992188 102.476562 105.875 101.476562 105.414062 C 107.359375 102.183594 112.304688 97.386719 115.691406 91.519531 C 120.300781 83.535156 121.753906 74.171875 119.777344 65.160156 C 118.511719 59.390625 115.914062 54.082031 112.238281 49.617188 C 115.214844 49.546875 117.910156 48.269531 120.253906 46.914062 L 131.347656 40.492188 L 132.011719 41.667969 C 132.875 43.191406 134.464844 44.046875 136.101562 44.046875 C 136.882812 44.046875 137.671875 43.851562 138.398438 43.4375 L 142.886719 40.902344 C 143.972656 40.285156 144.753906 39.28125 145.089844 38.074219 C 145.421875 36.863281 145.269531 35.601562 144.652344 34.515625 Z M 117.914062 42.878906 C 114.519531 44.84375 112.25 45.359375 110.078125 44.65625 C 109.121094 44.34375 108.007812 43.941406 106.71875 43.476562 C 102.988281 42.128906 98.359375 40.453125 93.515625 39.558594 C 92.34375 39.117188 91.6875 37.992188 91.980469 36.890625 C 92.113281 36.40625 92.457031 35.125 94.65625 35.367188 C 96.960938 35.84375 99.167969 36.472656 101.503906 37.140625 C 102.628906 37.460938 103.792969 37.792969 104.992188 38.113281 C 105.195312 38.167969 105.398438 38.195312 105.597656 38.195312 C 106.625 38.195312 107.570312 37.507812 107.847656 36.464844 C 108.183594 35.222656 107.441406 33.941406 106.199219 33.609375 C 105.035156 33.296875 103.890625 32.96875 102.785156 32.652344 C 100.324219 31.953125 98.003906 31.289062 95.488281 30.773438 C 95.472656 30.773438 95.410156 30.761719 95.394531 30.757812 L 93.40625 30.433594 C 90.214844 29.925781 87.378906 30.425781 84.738281 31.964844 L 68.75 41.273438 C 64.699219 43.632812 61.542969 44.035156 60.519531 42.324219 C 59.804688 41.128906 60.199219 39.34375 61.027344 38.835938 L 90.039062 20.972656 C 92.117188 19.691406 94.398438 19.371094 96.824219 20.023438 L 117.867188 25.660156 C 118.464844 25.820312 119.101562 25.738281 119.636719 25.429688 L 122.039062 24.042969 L 129.050781 36.429688 Z M 140.585938 36.839844 L 136.074219 39.375 C 136.074219 39.375 136.074219 39.371094 136.070312 39.371094 L 124.929688 19.683594 C 124.929688 19.679688 124.929688 19.679688 124.929688 19.679688 L 122.886719 16.070312 L 122.894531 16.042969 L 127.382812 13.503906 L 127.410156 13.511719 L 140.597656 36.8125 Z M 135.25 35.675781 C 135.121094 34.800781 135.726562 33.988281 136.601562 33.859375 C 137.476562 33.730469 138.292969 34.335938 138.417969 35.210938 C 138.546875 36.085938 137.941406 36.898438 137.066406 37.027344 C 136.191406 37.15625 135.378906 36.550781 135.25 35.675781 Z M 74.832031 105.355469 L 58.847656 114.667969 C 58.726562 114.738281 58.601562 114.804688 58.480469 114.867188 C 59.355469 111.382812 57.28125 107.773438 53.726562 106.621094 C 53.625 106.589844 53.523438 106.5625 53.421875 106.542969 C 49.878906 105.90625 46.355469 104.769531 43.253906 103.679688 C 29.828125 93.96875 25.960938 75.882812 34.277344 61.472656 C 37.191406 56.425781 41.421875 52.285156 46.457031 49.46875 C 46.03125 50.554688 46.476562 51.816406 47.535156 52.375 C 47.882812 52.5625 48.257812 52.648438 48.625 52.648438 C 49.460938 52.648438 50.269531 52.199219 50.6875 51.410156 L 53.675781 45.773438 C 54.011719 45.140625 54.039062 44.386719 53.746094 43.734375 C 53.457031 43.078125 52.878906 42.59375 52.183594 42.417969 L 45.996094 40.867188 C 44.746094 40.554688 43.480469 41.3125 43.167969 42.5625 C 42.890625 43.667969 43.453125 44.789062 44.453125 45.246094 C 38.570312 48.476562 33.628906 53.273438 30.238281 59.140625 C 25.628906 67.125 24.179688 76.488281 26.152344 85.5 C 27.417969 91.269531 30.015625 96.578125 33.691406 101.042969 C 30.710938 101.113281 28.019531 102.390625 25.679688 103.746094 L 14.585938 110.171875 L 13.917969 108.992188 C 13.300781 107.90625 12.296875 107.121094 11.089844 106.789062 C 9.882812 106.453125 8.617188 106.605469 7.53125 107.222656 L 3.046875 109.761719 C 0.796875 111.03125 0.00390625 113.898438 1.277344 116.144531 L 14.460938 139.445312 C 15.078125 140.53125 16.082031 141.316406 17.289062 141.648438 C 17.707031 141.765625 18.132812 141.824219 18.550781 141.824219 C 19.351562 141.824219 20.136719 141.617188 20.847656 141.214844 L 25.332031 138.675781 C 26.421875 138.0625 27.203125 137.058594 27.539062 135.851562 C 27.871094 134.640625 27.71875 133.378906 27.101562 132.289062 L 26.191406 130.675781 L 27.789062 129.753906 L 47.898438 135.140625 C 49.109375 135.464844 50.3125 135.628906 51.496094 135.628906 C 53.898438 135.628906 56.214844 134.964844 58.339844 133.660156 L 87.347656 115.796875 C 90.449219 113.886719 91.414062 109.28125 89.414062 105.941406 C 88.46875 104.363281 84.621094 99.65625 74.832031 105.355469 Z M 23.035156 134.617188 L 18.550781 137.15625 L 18.519531 137.148438 L 5.335938 113.847656 L 5.34375 113.820312 L 9.855469 111.285156 C 9.855469 111.285156 9.855469 111.289062 9.859375 111.289062 L 23.042969 134.589844 Z M 84.902344 111.828125 L 55.894531 129.6875 C 53.816406 130.96875 51.53125 131.285156 49.105469 130.636719 L 28.0625 125 C 27.464844 124.839844 26.828125 124.921875 26.292969 125.230469 L 23.890625 126.617188 L 16.882812 114.230469 L 28.015625 107.785156 C 31.410156 105.816406 33.679688 105.300781 35.851562 106.007812 C 36.808594 106.316406 37.921875 106.71875 39.210938 107.183594 C 42.941406 108.535156 47.570312 110.207031 52.410156 111.101562 C 53.585938 111.542969 54.242188 112.667969 53.949219 113.769531 C 53.816406 114.253906 53.476562 115.535156 51.273438 115.292969 C 48.96875 114.816406 46.761719 114.1875 44.429688 113.523438 C 43.304688 113.199219 42.136719 112.867188 40.9375 112.546875 C 39.695312 112.214844 38.414062 112.949219 38.082031 114.195312 C 37.746094 115.4375 38.484375 116.71875 39.730469 117.050781 C 40.894531 117.363281 42.039062 117.691406 43.148438 118.007812 C 45.605469 118.707031 47.925781 119.371094 50.441406 119.886719 C 50.457031 119.886719 50.519531 119.898438 50.535156 119.902344 L 52.523438 120.226562 C 55.714844 120.734375 58.550781 120.234375 61.191406 118.695312 L 77.179688 109.386719 C 81.230469 107.027344 84.386719 106.625 85.410156 108.335938 C 86.125 109.53125 85.730469 111.316406 84.902344 111.828125 Z M 10.679688 114.984375 C 10.808594 115.859375 10.203125 116.675781 9.328125 116.800781 C 8.453125 116.929688 7.640625 116.324219 7.511719 115.449219 C 7.382812 114.574219 7.988281 113.761719 8.863281 113.632812 C 9.738281 113.503906 10.550781 114.109375 10.679688 114.984375 Z M 10.679688 114.984375 " fill-opacity="1" fill-rule="evenodd"/></g><g fill="#ffffff" fill-opacity="1"><g transform="translate(137.834647, 84.818077)"><g><path d="M 17.015625 -7.34375 C 17.015625 -8.425781 16.628906 -9.257812 15.859375 -9.84375 C 15.085938 -10.425781 13.703125 -11.039062 11.703125 -11.6875 C 9.703125 -12.34375 8.117188 -12.984375 6.953125 -13.609375 C 3.773438 -15.328125 2.1875 -17.640625 2.1875 -20.546875 C 2.1875 -22.054688 2.613281 -23.40625 3.46875 -24.59375 C 4.320312 -25.78125 5.546875 -26.703125 7.140625 -27.359375 C 8.734375 -28.023438 10.523438 -28.359375 12.515625 -28.359375 C 14.515625 -28.359375 16.296875 -27.992188 17.859375 -27.265625 C 19.421875 -26.546875 20.632812 -25.523438 21.5 -24.203125 C 22.363281 -22.890625 22.796875 -21.394531 22.796875 -19.71875 L 17.03125 -19.71875 C 17.03125 -21 16.625 -21.992188 15.8125 -22.703125 C 15.007812 -23.410156 13.878906 -23.765625 12.421875 -23.765625 C 11.003906 -23.765625 9.90625 -23.46875 9.125 -22.875 C 8.34375 -22.28125 7.953125 -21.5 7.953125 -20.53125 C 7.953125 -19.613281 8.410156 -18.847656 9.328125 -18.234375 C 10.242188 -17.617188 11.59375 -17.046875 13.375 -16.515625 C 16.65625 -15.523438 19.046875 -14.296875 20.546875 -12.828125 C 22.046875 -11.367188 22.796875 -9.550781 22.796875 -7.375 C 22.796875 -4.957031 21.878906 -3.054688 20.046875 -1.671875 C 18.210938 -0.296875 15.742188 0.390625 12.640625 0.390625 C 10.492188 0.390625 8.535156 -0.00390625 6.765625 -0.796875 C 4.992188 -1.585938 3.644531 -2.664062 2.71875 -4.03125 C 1.789062 -5.40625 1.328125 -6.992188 1.328125 -8.796875 L 7.109375 -8.796875 C 7.109375 -5.710938 8.953125 -4.171875 12.640625 -4.171875 C 14.015625 -4.171875 15.085938 -4.445312 15.859375 -5 C 16.628906 -5.5625 17.015625 -6.34375 17.015625 -7.34375 Z M 17.015625 -7.34375 "/></g></g></g><g fill="#ffffff" fill-opacity="1"><g transform="translate(162.018717, 84.818077)"><g><path d="M 8.625 0 L 2.859375 0 L 2.859375 -27.984375 L 8.625 -27.984375 Z M 8.625 0 "/></g></g></g><g fill="#ffffff" fill-opacity="1"><g transform="translate(173.48646, 84.818077)"><g><path d="M 10.03125 -27.984375 L 17.21875 -7.6875 L 24.375 -27.984375 L 31.9375 -27.984375 L 31.9375 0 L 26.15625 0 L 26.15625 -7.65625 L 26.734375 -20.859375 L 19.1875 0 L 15.21875 0 L 7.6875 -20.828125 L 8.265625 -7.65625 L 8.265625 0 L 2.5 0 L 2.5 -27.984375 Z M 10.03125 -27.984375 "/></g></g></g><g fill="#ffffff" fill-opacity="1"><g transform="translate(207.947319, 84.818077)"><g><path d="M 8.265625 -9.859375 L 8.265625 0 L 2.5 0 L 2.5 -27.984375 L 13.421875 -27.984375 C 15.515625 -27.984375 17.359375 -27.597656 18.953125 -26.828125 C 20.554688 -26.054688 21.785156 -24.960938 22.640625 -23.546875 C 23.492188 -22.128906 23.921875 -20.519531 23.921875 -18.71875 C 23.921875 -15.976562 22.984375 -13.816406 21.109375 -12.234375 C 19.234375 -10.648438 16.632812 -9.859375 13.3125 -9.859375 Z M 8.265625 -14.53125 L 13.421875 -14.53125 C 14.941406 -14.53125 16.101562 -14.890625 16.90625 -15.609375 C 17.707031 -16.328125 18.109375 -17.351562 18.109375 -18.6875 C 18.109375 -20.050781 17.703125 -21.15625 16.890625 -22 C 16.085938 -22.851562 14.972656 -23.289062 13.546875 -23.3125 L 8.265625 -23.3125 Z M 8.265625 -14.53125 "/></g></g></g><g fill="#ffffff" fill-opacity="1"><g transform="translate(233.322343, 84.818077)"><g><path d="M 8.265625 -4.625 L 20.5 -4.625 L 20.5 0 L 2.5 0 L 2.5 -27.984375 L 8.265625 -27.984375 Z M 8.265625 -4.625 "/></g></g></g><g fill="#ffffff" fill-opacity="1"><g transform="translate(254.62507, 84.818077)"><g><path d="M 19.328125 -12.125 L 8.265625 -12.125 L 8.265625 -4.625 L 21.25 -4.625 L 21.25 0 L 2.5 0 L 2.5 -27.984375 L 21.21875 -27.984375 L 21.21875 -23.3125 L 8.265625 -23.3125 L 8.265625 -16.640625 L 19.328125 -16.640625 Z M 19.328125 -12.125 "/></g></g></g><g fill="#ffffff" fill-opacity="1"><g transform="translate(276.753782, 84.818077)"><g/></g></g><g fill="#ffffff" fill-opacity="1"><g transform="translate(286.550347, 84.818077)"><g><path d="M 24.46875 -9.328125 C 24.25 -6.304688 23.132812 -3.929688 21.125 -2.203125 C 19.125 -0.472656 16.484375 0.390625 13.203125 0.390625 C 9.617188 0.390625 6.796875 -0.816406 4.734375 -3.234375 C 2.679688 -5.648438 1.65625 -8.96875 1.65625 -13.1875 L 1.65625 -14.890625 C 1.65625 -17.585938 2.128906 -19.957031 3.078125 -22 C 4.023438 -24.050781 5.378906 -25.625 7.140625 -26.71875 C 8.898438 -27.8125 10.945312 -28.359375 13.28125 -28.359375 C 16.507812 -28.359375 19.109375 -27.492188 21.078125 -25.765625 C 23.054688 -24.035156 24.195312 -21.609375 24.5 -18.484375 L 18.734375 -18.484375 C 18.597656 -20.296875 18.097656 -21.609375 17.234375 -22.421875 C 16.367188 -23.234375 15.050781 -23.640625 13.28125 -23.640625 C 11.351562 -23.640625 9.910156 -22.945312 8.953125 -21.5625 C 8.003906 -20.1875 7.519531 -18.050781 7.5 -15.15625 L 7.5 -13.046875 C 7.5 -10.023438 7.957031 -7.816406 8.875 -6.421875 C 9.789062 -5.023438 11.234375 -4.328125 13.203125 -4.328125 C 14.984375 -4.328125 16.3125 -4.734375 17.1875 -5.546875 C 18.0625 -6.359375 18.566406 -7.617188 18.703125 -9.328125 Z M 24.46875 -9.328125 "/></g></g></g><g fill="#ffffff" fill-opacity="1"><g transform="translate(312.290341, 84.818077)"><g><path d="M 12.859375 -10.25 L 8.265625 -10.25 L 8.265625 0 L 2.5 0 L 2.5 -27.984375 L 12.890625 -27.984375 C 16.203125 -27.984375 18.753906 -27.242188 20.546875 -25.765625 C 22.335938 -24.296875 23.234375 -22.21875 23.234375 -19.53125 C 23.234375 -17.613281 22.816406 -16.019531 21.984375 -14.75 C 21.160156 -13.476562 19.910156 -12.460938 18.234375 -11.703125 L 24.296875 -0.265625 L 24.296875 0 L 18.109375 0 Z M 8.265625 -14.90625 L 12.921875 -14.90625 C 14.367188 -14.90625 15.488281 -15.273438 16.28125 -16.015625 C 17.070312 -16.753906 17.46875 -17.769531 17.46875 -19.0625 C 17.46875 -20.382812 17.09375 -21.421875 16.34375 -22.171875 C 15.59375 -22.929688 14.441406 -23.3125 12.890625 -23.3125 L 8.265625 -23.3125 Z M 8.265625 -14.90625 "/></g></g></g><g fill="#ffffff" fill-opacity="1"><g transform="translate(337.396439, 84.818077)"><g><path d="M 10.03125 -27.984375 L 17.21875 -7.6875 L 24.375 -27.984375 L 31.9375 -27.984375 L 31.9375 0 L 26.15625 0 L 26.15625 -7.65625 L 26.734375 -20.859375 L 19.1875 0 L 15.21875 0 L 7.6875 -20.828125 L 8.265625 -7.65625 L 8.265625 0 L 2.5 0 L 2.5 -27.984375 Z M 10.03125 -27.984375 "/></g></g></g></svg>